<?xml version="1.0" encoding="UTF-8" standalone="no"?>
<!--
  
  Copyright Tom Lloyd 2013
  
  This work is licensed under a Creative Commons Attribution-ShareAlike 3.0 Unported License.
  http://creativecommons.org/licenses/by-sa/3.0/deed.en_GB

-->

<svg
   xmlns:osb="http://www.openswatchbook.org/uri/2009/osb"
   xmlns:dc="http://purl.org/dc/elements/1.1/"
   xmlns:cc="http://creativecommons.org/ns#"
   xmlns:rdf="http://www.w3.org/1999/02/22-rdf-syntax-ns#"
   xmlns:svg="http://www.w3.org/2000/svg"
   xmlns="http://www.w3.org/2000/svg"
   xmlns:xlink="http://www.w3.org/1999/xlink"
   xmlns:sodipodi="http://sodipodi.sourceforge.net/DTD/sodipodi-0.dtd"
   xmlns:inkscape="http://www.inkscape.org/namespaces/inkscape"
   version="1.1"
   width="250"
   height="75"
   id="svg2"
   inkscape:version="0.48.4 r9939"
   sodipodi:docname="hackspace.svg"
   inkscape:export-filename="/home/justin/Desktop/Artwork/Hackspace/oldh-ddraig-tweak-big.png"
   inkscape:export-xdpi="139.73"
   inkscape:export-ydpi="139.73">
  <metadata
     id="metadata10">
    <rdf:RDF>
      <cc:Work
         rdf:about="">
        <dc:format>image/svg+xml</dc:format>
        <dc:type
           rdf:resource="http://purl.org/dc/dcmitype/StillImage" />
        <dc:title />
      </cc:Work>
    </rdf:RDF>
  </metadata>
  <defs
     id="defs8">
    <linearGradient
       id="linearGradient5320"
       osb:paint="solid">
      <stop
         style="stop-color:#da251c;stop-opacity:1;"
         offset="0"
         id="stop5322" />
    </linearGradient>
    <linearGradient
       id="linearGradient3878">
      <stop
         style="stop-color:#b87333;stop-opacity:1;"
         offset="0"
         id="stop3880" />
      <stop
         id="stop5943"
         offset="0.5"
         style="stop-color:#c94c27;stop-opacity:0.49803922;" />
      <stop
         style="stop-color:#da251c;stop-opacity:0;"
         offset="1"
         id="stop3882" />
    </linearGradient>
    <linearGradient
       inkscape:collect="always"
       xlink:href="#linearGradient7825"
       id="linearGradient8399"
       x1="89.183228"
       y1="617.59393"
       x2="704.54755"
       y2="617.59393"
       gradientUnits="userSpaceOnUse" />
    <linearGradient
       id="linearGradient7825">
      <stop
         stop-color="#a49934"
         offset="0"
         id="stop7827" />
      <stop
         stop-color="#8c8125"
         offset="0.04"
         id="stop7829" />
      <stop
         stop-color="#7f751f"
         offset="0.08"
         id="stop7831" />
      <stop
         stop-color="#9e9131"
         offset="0.12"
         id="stop7833" />
      <stop
         stop-color="#b6a744"
         offset="0.16"
         id="stop7835" />
      <stop
         stop-color="#cbbb59"
         offset="0.2"
         id="stop7837" />
      <stop
         stop-color="#d9ca6c"
         offset="0.24"
         id="stop7839" />
      <stop
         stop-color="#dfcf75"
         offset="0.28"
         id="stop7841" />
      <stop
         stop-color="#d7c869"
         offset="0.32"
         id="stop7843" />
      <stop
         stop-color="#cebe5a"
         offset="0.36"
         id="stop7845" />
      <stop
         stop-color="#c4b550"
         offset="0.4"
         id="stop7847" />
      <stop
         stop-color="#bfb04a"
         offset="0.44"
         id="stop7849" />
      <stop
         stop-color="#c2b34d"
         offset="0.48"
         id="stop7851" />
      <stop
         stop-color="#ddce71"
         offset="0.52"
         id="stop7853" />
      <stop
         stop-color="#eddf90"
         offset="0.56"
         id="stop7855" />
      <stop
         stop-color="#f7edb2"
         offset="0.6"
         id="stop7857" />
      <stop
         stop-color="#fdf7cf"
         offset="0.64"
         id="stop7859" />
      <stop
         stop-color="#fefbde"
         offset="0.68"
         id="stop7861" />
      <stop
         stop-color="#fbf3c3"
         offset="0.72"
         id="stop7863" />
      <stop
         stop-color="#f1e59e"
         offset="0.76"
         id="stop7865" />
      <stop
         stop-color="#e1d179"
         offset="0.8"
         id="stop7867" />
      <stop
         stop-color="#d3c363"
         offset="0.84"
         id="stop7869" />
      <stop
         stop-color="#d3c464"
         offset="0.88"
         id="stop7871" />
      <stop
         stop-color="#d5c566"
         offset="0.92"
         id="stop7873" />
      <stop
         stop-color="#c8b856"
         offset="0.96"
         id="stop7875" />
      <stop
         stop-color="#b4a442"
         offset="1"
         id="stop7877" />
    </linearGradient>
    <linearGradient
       inkscape:collect="always"
       xlink:href="#linearGradient3140"
       id="linearGradient8507"
       x1="179.31436"
       y1="348.38614"
       x2="-43.172539"
       y2="128.17979"
       gradientUnits="userSpaceOnUse" />
    <linearGradient
       id="linearGradient15025">
      <stop
         id="stop15027"
         offset="0"
         stop-color="#7d5c3e" />
      <stop
         id="stop15029"
         offset="0.02"
         stop-color="#8a6848" />
      <stop
         id="stop15031"
         offset="0.04"
         stop-color="#977555" />
      <stop
         id="stop15033"
         offset="0.06"
         stop-color="#a58363" />
      <stop
         id="stop15035"
         offset="0.08"
         stop-color="#b29071" />
      <stop
         id="stop15037"
         offset="0.1"
         stop-color="#bd9d80" />
      <stop
         id="stop15039"
         offset="0.12"
         stop-color="#c6a98c" />
      <stop
         id="stop15041"
         offset="0.14"
         stop-color="#cfb39a" />
      <stop
         id="stop15043"
         offset="0.16"
         stop-color="#d6bca4" />
      <stop
         id="stop15045"
         offset="0.18"
         stop-color="#dbc3ad" />
      <stop
         id="stop15047"
         offset="0.2"
         stop-color="#dcc6b1" />
      <stop
         id="stop15049"
         offset="0.22"
         stop-color="#dac2ac" />
      <stop
         id="stop15051"
         offset="0.24"
         stop-color="#d3b9a0" />
      <stop
         id="stop15053"
         offset="0.26"
         stop-color="#c7aa8d" />
      <stop
         id="stop15055"
         offset="0.28"
         stop-color="#b9987b" />
      <stop
         id="stop15057"
         offset="0.3"
         stop-color="#ad8b6b" />
      <stop
         id="stop15059"
         offset="0.32"
         stop-color="#ae8c6c" />
      <stop
         id="stop15061"
         offset="0.34"
         stop-color="#bb9b7d" />
      <stop
         id="stop15063"
         offset="0.36"
         stop-color="#cdb197" />
      <stop
         id="stop15065"
         offset="0.38"
         stop-color="#dcc6b0" />
      <stop
         id="stop15067"
         offset="0.4"
         stop-color="#e8d6c6" />
      <stop
         id="stop15069"
         offset="0.42"
         stop-color="#efe1d5" />
      <stop
         id="stop15071"
         offset="0.44"
         stop-color="#f2e8de" />
      <stop
         id="stop15073"
         offset="0.46"
         stop-color="#f3eae2" />
      <stop
         id="stop15075"
         offset="0.48"
         stop-color="#f3eae2" />
      <stop
         id="stop15077"
         offset="0.5"
         stop-color="#f3e9e0" />
      <stop
         id="stop15079"
         offset="0.52"
         stop-color="#f1e6da" />
      <stop
         id="stop15081"
         offset="0.54"
         stop-color="#eee0d3" />
      <stop
         id="stop15083"
         offset="0.56"
         stop-color="#eadacb" />
      <stop
         id="stop15085"
         offset="0.58"
         stop-color="#e6d3c1" />
      <stop
         id="stop15087"
         offset="0.6"
         stop-color="#e0cab7" />
      <stop
         id="stop15089"
         offset="0.62"
         stop-color="#dac3ac" />
      <stop
         id="stop15091"
         offset="0.64"
         stop-color="#d4baa2" />
      <stop
         id="stop15093"
         offset="0.66"
         stop-color="#ceb298" />
      <stop
         id="stop15095"
         offset="0.68"
         stop-color="#c8aa8f" />
      <stop
         id="stop15097"
         offset="0.7"
         stop-color="#c3a487" />
      <stop
         id="stop15099"
         offset="0.72"
         stop-color="#bd9d7f" />
      <stop
         id="stop15101"
         offset="0.74"
         stop-color="#b69577" />
      <stop
         id="stop15103"
         offset="0.76"
         stop-color="#b08e6f" />
      <stop
         id="stop15105"
         offset="0.78"
         stop-color="#a98767" />
      <stop
         id="stop15107"
         offset="0.8"
         stop-color="#a28060" />
      <stop
         id="stop15109"
         offset="0.82"
         stop-color="#9c7a5a" />
      <stop
         id="stop15111"
         offset="0.84"
         stop-color="#977555" />
      <stop
         id="stop15113"
         offset="0.86"
         stop-color="#916f4f" />
      <stop
         id="stop15115"
         offset="0.88"
         stop-color="#8b6949" />
      <stop
         id="stop15117"
         offset="0.9"
         stop-color="#846344" />
      <stop
         id="stop15119"
         offset="0.92"
         stop-color="#7d5c3e" />
      <stop
         id="stop15121"
         offset="0.94"
         stop-color="#765639" />
      <stop
         id="stop15123"
         offset="0.96"
         stop-color="#6f5034" />
      <stop
         id="stop15125"
         offset="0.98"
         stop-color="#684b2f" />
      <stop
         id="stop15127"
         offset="1"
         stop-color="#64472c" />
    </linearGradient>
    <linearGradient
       id="linearGradient3140">
      <stop
         id="stop3142"
         offset="0"
         stop-color="#953a02" />
      <stop
         id="stop3144"
         offset="0.02"
         stop-color="#a1460e" />
      <stop
         id="stop3146"
         offset="0.04"
         stop-color="#ae531b" />
      <stop
         id="stop3148"
         offset="0.06"
         stop-color="#bc6129" />
      <stop
         id="stop3150"
         offset="0.08"
         stop-color="#c96e36" />
      <stop
         id="stop3152"
         offset="0.1"
         stop-color="#d67b43" />
      <stop
         id="stop3154"
         offset="0.12"
         stop-color="#e1864e" />
      <stop
         id="stop3156"
         offset="0.14"
         stop-color="#eb9058" />
      <stop
         id="stop3158"
         offset="0.16"
         stop-color="#f49961" />
      <stop
         id="stop3160"
         offset="0.18"
         stop-color="#fba068" />
      <stop
         id="stop3162"
         offset="0.2"
         stop-color="#fda26a" />
      <stop
         id="stop3164"
         offset="0.22"
         stop-color="#fa9f67" />
      <stop
         id="stop3166"
         offset="0.24"
         stop-color="#f0955d" />
      <stop
         id="stop3168"
         offset="0.26"
         stop-color="#e2874f" />
      <stop
         id="stop3170"
         offset="0.28"
         stop-color="#d1763e" />
      <stop
         id="stop3172"
         offset="0.3"
         stop-color="#c46931" />
      <stop
         id="stop3174"
         offset="0.32"
         stop-color="#c56a32" />
      <stop
         id="stop3176"
         offset="0.34"
         stop-color="#d47941" />
      <stop
         id="stop3178"
         offset="0.36"
         stop-color="#e98e56" />
      <stop
         id="stop3180"
         offset="0.38"
         stop-color="#fda26a" />
      <stop
         id="stop3182"
         offset="0.4"
         stop-color="#ffb179" />
      <stop
         id="stop3184"
         offset="0.42"
         stop-color="#ffbc84" />
      <stop
         id="stop3186"
         offset="0.44"
         stop-color="#ffc28a" />
      <stop
         id="stop3188"
         offset="0.46"
         stop-color="#ffc48c" />
      <stop
         id="stop3190"
         offset="0.48"
         stop-color="#ffc48c" />
      <stop
         id="stop3192"
         offset="0.5"
         stop-color="#ffc38b" />
      <stop
         id="stop3194"
         offset="0.52"
         stop-color="#ffc088" />
      <stop
         id="stop3196"
         offset="0.54"
         stop-color="#ffbb83" />
      <stop
         id="stop3198"
         offset="0.56"
         stop-color="#ffb57d" />
      <stop
         id="stop3200"
         offset="0.58"
         stop-color="#ffae76" />
      <stop
         id="stop3202"
         offset="0.6"
         stop-color="#ffa66e" />
      <stop
         id="stop3204"
         offset="0.62"
         stop-color="#fa9f67" />
      <stop
         id="stop3206"
         offset="0.64"
         stop-color="#f2975f" />
      <stop
         id="stop3208"
         offset="0.66"
         stop-color="#ea8f57" />
      <stop
         id="stop3210"
         offset="0.68"
         stop-color="#e38850" />
      <stop
         id="stop3212"
         offset="0.7"
         stop-color="#dc8149" />
      <stop
         id="stop3214"
         offset="0.72"
         stop-color="#d67b43" />
      <stop
         id="stop3216"
         offset="0.74"
         stop-color="#ce733b" />
      <stop
         id="stop3218"
         offset="0.76"
         stop-color="#c76c34" />
      <stop
         id="stop3220"
         offset="0.78"
         stop-color="#c0652d" />
      <stop
         id="stop3222"
         offset="0.8"
         stop-color="#b95e26" />
      <stop
         id="stop3224"
         offset="0.82"
         stop-color="#b35820" />
      <stop
         id="stop3226"
         offset="0.84"
         stop-color="#ae531b" />
      <stop
         id="stop3228"
         offset="0.86"
         stop-color="#a84d15" />
      <stop
         id="stop3230"
         offset="0.88"
         stop-color="#a2470f" />
      <stop
         id="stop3232"
         offset="0.9"
         stop-color="#9c4109" />
      <stop
         id="stop3234"
         offset="0.92"
         stop-color="#953a02" />
      <stop
         id="stop3236"
         offset="0.94"
         stop-color="#8f3400" />
      <stop
         id="stop3238"
         offset="0.96"
         stop-color="#892e00" />
      <stop
         id="stop3240"
         offset="0.98"
         stop-color="#832800" />
      <stop
         id="stop3242"
         offset="1"
         stop-color="#7f2400" />
    </linearGradient>
    <linearGradient
       inkscape:collect="always"
       xlink:href="#linearGradient3140"
       id="linearGradient3136"
       gradientUnits="userSpaceOnUse"
       x1="179.31436"
       y1="348.38614"
       x2="-43.172539"
       y2="128.17979" />
  </defs>
  <sodipodi:namedview
     pagecolor="#ffffff"
     bordercolor="#666666"
     borderopacity="1"
     objecttolerance="10"
     gridtolerance="10"
     guidetolerance="10"
     inkscape:pageopacity="0"
     inkscape:pageshadow="2"
     inkscape:window-width="1855"
     inkscape:window-height="1176"
     id="namedview6"
     showgrid="false"
     inkscape:zoom="3.1466665"
     inkscape:cx="234.48093"
     inkscape:cy="-14.803429"
     inkscape:window-x="65"
     inkscape:window-y="24"
     inkscape:window-maximized="1"
     inkscape:current-layer="svg2"
     fit-margin-top="10"
     fit-margin-left="10"
     fit-margin-right="10"
     fit-margin-bottom="10" />
  <g
     id="g3128"
     transform="matrix(1.0690014,0,0,1.0690014,-4.2234491,-3.067086)">
    <path
       inkscape:export-ydpi="11.18"
       inkscape:export-xdpi="11.18"
       inkscape:export-filename="/home/justin/Desktop/Artwork/Hackspace/newh-ddraig-tweak-small.png"
       transform="matrix(0.25840676,0,0,0.25840676,21.055732,-27.021284)"
       d="m 205.29662,251.37712 c 0,69.32812 -56.20155,125.52966 -125.529667,125.52966 -69.328119,0 -125.529664,-56.20154 -125.529664,-125.52966 0,-69.32812 56.201545,-125.52966 125.529664,-125.52966 69.328117,0 125.529667,56.20154 125.529667,125.52966 z"
       sodipodi:ry="125.52966"
       sodipodi:rx="125.52966"
       sodipodi:cy="251.37712"
       sodipodi:cx="79.766953"
       id="path3757-8-5"
       style="fill:url(#linearGradient3136);fill-opacity:1;stroke:#000000;stroke-opacity:1"
       sodipodi:type="arc" />
    <g
       transform="matrix(0.12638633,0,0,0.12638633,-24.825219,-9.0854229)"
       id="g5211">
      <path
         sodipodi:type="arc"
         style="fill:#ffffff;fill-opacity:1;stroke:none"
         id="path3757-8"
         sodipodi:cx="79.766953"
         sodipodi:cy="251.37712"
         sodipodi:rx="125.52966"
         sodipodi:ry="125.52966"
         d="m 205.29662,251.37712 c 0,69.32812 -56.20155,125.52966 -125.529667,125.52966 -69.328119,0 -125.529664,-56.20154 -125.529664,-125.52966 0,-69.32812 56.201545,-125.52966 125.529664,-125.52966 69.328117,0 125.529667,56.20154 125.529667,125.52966 z"
         transform="matrix(1.8430379,0,0,1.8430379,378.93747,-91.71108)" />
      <path
         sodipodi:type="arc"
         style="fill:#00ab39;fill-opacity:1;fill-rule:nonzero;stroke:none"
         id="path3757"
         sodipodi:cx="79.766953"
         sodipodi:cy="251.37712"
         sodipodi:rx="125.52966"
         sodipodi:ry="125.52966"
         d="m 205.29662,251.37712 c 0,69.32812 -56.20155,125.52966 -125.529667,125.52966 -69.328119,0 -125.529664,-56.20154 -125.529664,-125.52966 0,0 0,0 0,0 l 125.529664,0 z"
         transform="matrix(1.8467258,0,0,1.8430379,378.80351,-90.78956)"
         sodipodi:start="0"
         sodipodi:end="3.1415927" />
    </g>
    <g
       style="fill:#da251c;fill-opacity:1;stroke:#ffffff;stroke-width:0.21117038;stroke-miterlimit:4;stroke-opacity:1;stroke-dasharray:none"
       id="g4469"
       transform="matrix(0.6272086,0,0,0.6272086,5.9168461,2.1859985)">
      <path
         id="path4471"
         d="M 57,98.501 43.999,85.5 46.217,83.282 30.717,67.781 28.499,70 15.498,57 34.987,37.51 l 13.002,13 -4.234,4.235 2.66,2.661 10.992,-10.993 -2.66,-2.66 -4.089,4.089 L 37.656,34.841 57,15.497 70.001,28.498 67.784,30.716 83.282,46.216 85.501,43.998 98.503,57 79.159,76.343 66.157,63.342 70.246,59.253 68.083,57.09 57.091,68.083 59.253,70.245 63.487,66.011 76.49,79.014 57,98.501 z"
         inkscape:connector-curvature="0"
         style="fill:#da251c;fill-opacity:1;stroke:#ffffff;stroke-width:0.21117038;stroke-miterlimit:4;stroke-opacity:1;stroke-dasharray:none" />
    </g>
  </g>
  <g
     style="font-size:40px;font-style:normal;font-variant:normal;font-weight:normal;font-stretch:normal;line-height:125%;letter-spacing:0px;word-spacing:0px;fill:#000000;fill-opacity:1;stroke:none;font-family:Noto Serif;-inkscape-font-specification:Noto Serif"
     id="text3428">
    <path
       d="m 119.96349,28.527849 c -0.78126,0 -1.47266,-0.08203 -2.07422,-0.246094 -0.59376,-0.164062 -1.09376,-0.390624 -1.5,-0.679687 -0.39844,-0.296874 -0.69922,-0.652342 -0.90235,-1.066406 -0.20312,-0.421873 -0.30469,-0.88281 -0.30468,-1.382813 -10e-6,-0.484371 0.14843,-0.874996 0.44531,-1.171875 0.30468,-0.29687 0.73437,-0.445308 1.28906,-0.445312 0.0234,0.500004 0.0976,0.980472 0.22266,1.441406 0.13281,0.46094 0.32812,0.86719 0.58593,1.21875 0.25781,0.351564 0.58594,0.632814 0.98438,0.84375 0.39843,0.210938 0.8789,0.316407 1.44141,0.316406 1.07811,1e-6 1.91796,-0.257811 2.51953,-0.773437 0.60936,-0.523436 0.91405,-1.273435 0.91406,-2.25 -1e-5,-0.437496 -0.0625,-0.824214 -0.1875,-1.160157 -0.12501,-0.335932 -0.33204,-0.644525 -0.62109,-0.925781 -0.28908,-0.289056 -0.67189,-0.562493 -1.14844,-0.820312 -0.46876,-0.265618 -1.0547,-0.542962 -1.75781,-0.832032 -0.7422,-0.304679 -1.39063,-0.628897 -1.94532,-0.972656 -0.55469,-0.351553 -1.01562,-0.738272 -1.38281,-1.160156 -0.36719,-0.429677 -0.64063,-0.906239 -0.82031,-1.429688 -0.17969,-0.523425 -0.26953,-1.113268 -0.26953,-1.769531 0,-0.687486 0.1289,-1.300767 0.38672,-1.839844 0.26562,-0.539047 0.63281,-0.992171 1.10156,-1.359375 0.46874,-0.374983 1.02343,-0.660139 1.66406,-0.855468 0.64062,-0.195296 1.33984,-0.292952 2.09766,-0.292969 0.71874,1.7e-5 1.35546,0.07424 1.91015,0.222656 0.55468,0.148455 1.02343,0.347673 1.40625,0.597656 0.38281,0.250017 0.67187,0.539079 0.86719,0.867188 0.20311,0.320328 0.30468,0.656265 0.30469,1.007812 -1e-5,0.51564 -0.17189,0.906264 -0.51563,1.171875 -0.33594,0.257826 -0.79298,0.386732 -1.37109,0.386719 -1e-5,-0.374986 -0.0469,-0.742173 -0.14063,-1.101562 -0.0859,-0.367173 -0.23438,-0.691392 -0.44531,-0.972657 -0.21094,-0.289047 -0.48829,-0.523421 -0.83203,-0.703125 -0.34376,-0.179671 -0.76954,-0.269515 -1.27734,-0.269531 -0.46095,1.6e-5 -0.87501,0.06642 -1.24219,0.199219 -0.35938,0.125016 -0.66407,0.308609 -0.91406,0.550781 -0.25001,0.23439 -0.44141,0.519546 -0.57422,0.855469 -0.13282,0.335952 -0.19922,0.710951 -0.19922,1.125 0,0.476575 0.0625,0.89845 0.1875,1.265625 0.125,0.359387 0.33203,0.687511 0.62109,0.984375 0.29687,0.289073 0.68359,0.566417 1.16016,0.832031 0.47656,0.257823 1.06249,0.527354 1.75781,0.808594 0.70312,0.289072 1.32812,0.593759 1.875,0.914062 0.55468,0.320321 1.02343,0.679696 1.40625,1.078125 0.3828,0.390633 0.67577,0.832038 0.87891,1.324219 0.20311,0.484381 0.30467,1.035162 0.30469,1.652344 -2e-5,0.757816 -0.14064,1.437503 -0.42188,2.039062 -0.27345,0.593752 -0.66798,1.097658 -1.18359,1.511719 -0.51564,0.414063 -1.13673,0.730469 -1.86328,0.949219 -0.72657,0.210937 -1.53907,0.316406 -2.4375,0.316406"
       style="font-size:24px;text-align:center;text-anchor:middle;-inkscape-font-specification:Noto Serif"
       id="path3174" />
    <path
       d="m 138.30333,15.496599 2.40234,7.113281 c 0.0937,0.289068 0.1914,0.601568 0.29297,0.9375 0.10936,0.32813 0.21093,0.656255 0.30469,0.984375 0.0937,0.320316 0.17967,0.625004 0.25781,0.914063 0.0781,0.289065 0.13671,0.535159 0.17578,0.738281 l 0.0703,0 c 0.0703,-0.398435 0.18357,-0.886716 0.33984,-1.464844 0.15623,-0.585933 0.35545,-1.26562 0.59766,-2.039062 l 1.19531,-3.867188 c 0.0625,-0.203115 0.11326,-0.417958 0.15234,-0.644531 0.0469,-0.234364 0.0703,-0.417958 0.0703,-0.550781 -1e-5,-0.414051 -0.13283,-0.714832 -0.39843,-0.902344 -0.25783,-0.187488 -0.65627,-0.281238 -1.19532,-0.28125 l -0.16406,0 0,-1.007812 5.13281,0 0,1.007812 -0.30468,0 c -0.2344,1.2e-5 -0.43752,0.02345 -0.60938,0.07031 -0.17189,0.04689 -0.32814,0.140636 -0.46875,0.28125 -0.13283,0.132824 -0.25783,0.320323 -0.375,0.5625 -0.1172,0.242198 -0.23439,0.56251 -0.35156,0.960937 l -3.09375,9.984375 -1.92188,0 -2.85937,-8.449219 -0.43359,-1.582031 -3.39844,10.03125 -1.89844,0 -3.14062,-10.582031 c -0.0938,-0.249989 -0.19141,-0.45702 -0.29297,-0.621094 -0.10157,-0.164051 -0.21875,-0.292957 -0.35157,-0.386719 -0.13281,-0.10155 -0.28515,-0.171863 -0.45703,-0.210937 -0.17187,-0.03905 -0.375,-0.05858 -0.60937,-0.05859 l -0.0703,0 0,-1.007812 5.92968,0 0,1.007812 -0.3164,0 c -0.47657,1.2e-5 -0.83595,0.07032 -1.07813,0.210938 -0.24219,0.140636 -0.36328,0.406261 -0.36328,0.796875 0,0.132823 0.0195,0.292979 0.0586,0.480468 0.0469,0.187511 0.0937,0.371104 0.14063,0.550782 l 1.125,4.03125 c 0.0781,0.289068 0.16015,0.605474 0.24609,0.949218 0.0859,0.343755 0.16406,0.687505 0.23438,1.03125 0.0781,0.335941 0.14843,0.652347 0.21094,0.949219 0.0625,0.296878 0.11327,0.546878 0.15234,0.75 l 0.0703,0 c 0.0391,-0.203122 0.0898,-0.437497 0.15235,-0.703125 0.0703,-0.273434 0.14843,-0.562496 0.23437,-0.867187 0.0937,-0.312496 0.1914,-0.628902 0.29297,-0.949219 0.10155,-0.320308 0.20312,-0.624995 0.30469,-0.914063 l 2.49609,-7.253906 1.51172,0"
       style="font-size:24px;text-align:center;text-anchor:middle;-inkscape-font-specification:Noto Serif"
       id="path3176" />
    <path
       d="m 151.07677,24.813005 c -1e-5,0.750003 0.15624,1.312503 0.46875,1.6875 0.32031,0.367189 0.81249,0.550783 1.47656,0.550782 0.48437,1e-6 0.92187,-0.07812 1.3125,-0.234375 0.39843,-0.156249 0.73437,-0.378905 1.00781,-0.667969 0.28124,-0.28906 0.49609,-0.640622 0.64453,-1.054688 0.14843,-0.414058 0.22265,-0.874995 0.22266,-1.382812 l 0,-1.945313 -1.53516,0.07031 c -0.67969,0.03126 -1.25,0.117194 -1.71093,0.257812 -0.45313,0.132819 -0.82032,0.324225 -1.10157,0.574219 -0.28125,0.242193 -0.48438,0.542974 -0.60937,0.902344 -0.11719,0.359379 -0.17579,0.773441 -0.17578,1.242187 m 2.90625,-8.425781 c -0.46095,1.2e-5 -0.83595,0.06642 -1.125,0.199219 -0.28126,0.125012 -0.50391,0.304699 -0.66797,0.539062 -0.15626,0.234386 -0.26172,0.51173 -0.31641,0.832032 -0.0547,0.320322 -0.082,0.667978 -0.082,1.042968 -0.66407,10e-6 -1.17188,-0.113271 -1.52344,-0.339843 -0.34375,-0.226553 -0.51562,-0.617178 -0.51562,-1.171875 0,-0.414052 0.11328,-0.765614 0.33984,-1.054688 0.22656,-0.28905 0.53516,-0.523425 0.92578,-0.703125 0.39844,-0.187487 0.85937,-0.324206 1.38282,-0.410156 0.52343,-0.08592 1.08202,-0.128893 1.67578,-0.128906 0.73436,1.3e-5 1.37499,0.07423 1.92187,0.222656 0.54687,0.140638 1.0039,0.375012 1.3711,0.703125 0.36717,0.328137 0.64061,0.757824 0.82031,1.289062 0.18749,0.523448 0.28124,1.167979 0.28125,1.933594 l 0,6.222656 c -1e-5,0.33594 0.0273,0.613284 0.082,0.832032 0.0547,0.218751 0.14061,0.394532 0.25781,0.527343 0.11718,0.132814 0.26952,0.226564 0.45703,0.28125 0.1953,0.05469 0.42577,0.08203 0.69141,0.08203 l 0.0703,0 0,1.007812 -3.24609,0 -0.375,-2.0625 -0.19922,0 c -0.25001,0.335939 -0.4922,0.644533 -0.72656,0.925781 -0.23439,0.281251 -0.4922,0.523439 -0.77344,0.726563 -0.28126,0.203125 -0.60157,0.359375 -0.96094,0.46875 -0.35157,0.117187 -0.77735,0.175781 -1.27734,0.175781 -0.53126,0 -1.02735,-0.07813 -1.48828,-0.234375 -0.45313,-0.148437 -0.84766,-0.378906 -1.1836,-0.691406 -0.32812,-0.320312 -0.58594,-0.718749 -0.77343,-1.195313 -0.18751,-0.484372 -0.28126,-1.054684 -0.28125,-1.710937 -1e-5,-1.273433 0.45312,-2.218744 1.35937,-2.835938 0.90625,-0.61718 2.27734,-0.953117 4.11328,-1.007812 l 1.99219,-0.07031 0,-1.441406 c -10e-6,-0.429678 -0.0234,-0.824209 -0.0703,-1.183594 -0.0469,-0.367177 -0.14845,-0.679676 -0.30469,-0.9375 -0.15626,-0.265613 -0.38282,-0.468738 -0.67969,-0.609375 -0.28907,-0.148425 -0.67969,-0.222644 -1.17187,-0.222656"
       style="font-size:24px;text-align:center;text-anchor:middle;-inkscape-font-specification:Noto Serif"
       id="path3178" />
    <path
       d="m 168.17442,27.285662 0,1.007812 -6.45703,0 0,-1.007812 0.19922,0 c 0.27344,1e-6 0.52734,-0.01953 0.76172,-0.05859 0.24219,-0.03906 0.44922,-0.117186 0.62109,-0.234375 0.17969,-0.124999 0.32031,-0.30078 0.42188,-0.527344 0.10937,-0.22656 0.16406,-0.527341 0.16406,-0.902344 l 0,-7.488281 c 0,-0.351552 -0.0547,-0.632801 -0.16406,-0.84375 -0.10157,-0.218739 -0.24219,-0.386707 -0.42188,-0.503906 -0.17969,-0.117176 -0.39062,-0.195301 -0.63281,-0.234375 -0.23438,-0.03905 -0.48438,-0.05858 -0.75,-0.05859 l -0.0703,0 0,-1.007812 3.8789,0 0.31641,1.945312 0.11719,0 c 0.24999,-0.445301 0.51171,-0.808582 0.78515,-1.089844 0.28125,-0.28905 0.57422,-0.511706 0.87891,-0.667968 0.31249,-0.16405 0.64062,-0.273425 0.98438,-0.328125 0.35155,-0.06249 0.71874,-0.09374 1.10156,-0.09375 0.6328,1.3e-5 1.1953,0.09376 1.6875,0.28125 0.49999,0.1797 0.92186,0.46095 1.26562,0.84375 0.35155,0.375011 0.61718,0.859386 0.79688,1.453125 0.18749,0.59376 0.28124,1.30079 0.28125,2.121093 l 0,5.671875 c -1e-5,0.375003 0.0429,0.675784 0.1289,0.902344 0.0937,0.226564 0.22265,0.402345 0.38672,0.527344 0.16405,0.117189 0.35936,0.195314 0.58594,0.234375 0.22655,0.03906 0.47264,0.0586 0.73828,0.05859 l 0.082,0 0,1.007812 -4.18359,0 0,-8.285156 c -10e-6,-0.523429 -0.0469,-0.988272 -0.14063,-1.394531 -0.0938,-0.40624 -0.2461,-0.74999 -0.45703,-1.03125 -0.20313,-0.281239 -0.47266,-0.492177 -0.80859,-0.632813 -0.33595,-0.148426 -0.7461,-0.222644 -1.23047,-0.222656 -0.54688,1.2e-5 -1.00782,0.10548 -1.38281,0.316406 -0.3672,0.210949 -0.66407,0.496105 -0.89063,0.855469 -0.22656,0.359385 -0.39063,0.773447 -0.49218,1.242187 -0.0938,0.468759 -0.14063,0.960946 -0.14063,1.476563 l 0,5.0625 c 0,0.351565 0.0508,0.636721 0.15234,0.855469 0.10937,0.210939 0.25391,0.371095 0.4336,0.480468 0.17968,0.109377 0.38671,0.183595 0.62109,0.222657 0.24218,0.03125 0.49609,0.04688 0.76172,0.04687 l 0.0703,0"
       style="font-size:24px;text-align:center;text-anchor:middle;-inkscape-font-specification:Noto Serif"
       id="path3180" />
    <path
       d="m 181.55724,28.527849 c -0.60157,0 -1.14845,-0.05469 -1.64063,-0.164062 -0.48438,-0.101563 -0.89844,-0.257813 -1.24219,-0.46875 -0.34375,-0.21875 -0.60937,-0.484374 -0.79687,-0.796875 -0.1875,-0.320311 -0.28125,-0.691405 -0.28125,-1.113282 0,-0.320309 0.0508,-0.585934 0.15234,-0.796875 0.10938,-0.218746 0.23828,-0.390621 0.38672,-0.515625 0.15625,-0.124996 0.32031,-0.210933 0.49219,-0.257812 0.17968,-0.05468 0.33984,-0.08203 0.48047,-0.08203 -1e-5,0.421878 0.043,0.816409 0.1289,1.183593 0.0859,0.36719 0.23047,0.691409 0.4336,0.972657 0.20312,0.273439 0.46874,0.492189 0.79687,0.65625 0.33594,0.156251 0.74609,0.234376 1.23047,0.234375 0.42968,1e-6 0.80859,-0.05078 1.13672,-0.152344 0.32812,-0.109374 0.60156,-0.257811 0.82031,-0.445313 0.22656,-0.19531 0.39843,-0.425779 0.51563,-0.691406 0.11718,-0.273435 0.17577,-0.57031 0.17578,-0.890625 -1e-5,-0.296871 -0.0469,-0.550777 -0.14063,-0.761719 -0.0859,-0.218745 -0.24219,-0.42187 -0.46875,-0.609375 -0.21875,-0.187495 -0.51953,-0.378901 -0.90234,-0.574218 -0.38282,-0.195308 -0.86329,-0.417964 -1.44141,-0.667969 -0.61719,-0.273432 -1.15625,-0.53515 -1.61718,-0.785156 -0.45313,-0.257806 -0.82813,-0.53515 -1.125,-0.832032 -0.29688,-0.296867 -0.51954,-0.632804 -0.66797,-1.007812 -0.14844,-0.382804 -0.22266,-0.835928 -0.22266,-1.359375 0,-0.546865 0.10547,-1.031239 0.31641,-1.453125 0.21875,-0.421863 0.52734,-0.773426 0.92578,-1.054688 0.39843,-0.28905 0.87499,-0.507799 1.42969,-0.65625 0.55468,-0.148424 1.17187,-0.222643 1.85156,-0.222656 0.5703,1.3e-5 1.07421,0.05861 1.51172,0.175781 0.43749,0.117201 0.80468,0.277357 1.10156,0.480469 0.29687,0.195325 0.51952,0.4297 0.66797,0.703125 0.14843,0.265637 0.22265,0.546886 0.22265,0.84375 0,0.437511 -0.15235,0.789073 -0.45703,1.054688 -0.29688,0.257822 -0.72266,0.386728 -1.27734,0.386718 -10e-6,-0.804677 -0.16798,-1.429676 -0.50391,-1.875 -0.32813,-0.4453 -0.84766,-0.667956 -1.55859,-0.667968 -0.40626,1.2e-5 -0.75391,0.04689 -1.04297,0.140625 -0.28907,0.09376 -0.52735,0.226574 -0.71484,0.398437 -0.17969,0.171886 -0.31251,0.375011 -0.39844,0.609375 -0.0859,0.234386 -0.12891,0.492198 -0.12891,0.773438 0,0.304697 0.0547,0.570322 0.16407,0.796875 0.10937,0.218759 0.28124,0.421884 0.51562,0.609375 0.24218,0.187508 0.55078,0.371102 0.92578,0.550781 0.38281,0.171883 0.83984,0.367195 1.3711,0.585937 0.6328,0.265633 1.17577,0.527351 1.6289,0.785157 0.45312,0.257819 0.82421,0.539068 1.11328,0.84375 0.29687,0.304693 0.51562,0.648442 0.65625,1.03125 0.14062,0.382817 0.21093,0.824222 0.21094,1.324218 -1e-5,0.625003 -0.11329,1.171878 -0.33984,1.640625 -0.22657,0.468752 -0.54689,0.863283 -0.96094,1.183594 -0.41407,0.312501 -0.91407,0.546875 -1.5,0.703125 -0.57813,0.15625 -1.22266,0.234375 -1.93359,0.234375"
       style="font-size:24px;text-align:center;text-anchor:middle;-inkscape-font-specification:Noto Serif"
       id="path3182" />
    <path
       d="m 193.94395,16.480974 c -0.89063,1.2e-5 -1.57813,0.363293 -2.0625,1.089844 -0.47656,0.71876 -0.75781,1.773446 -0.84375,3.164062 l 5.51954,0 c -1e-5,-0.632804 -0.0469,-1.210928 -0.14063,-1.734375 -0.0938,-0.523427 -0.2422,-0.972646 -0.44531,-1.347656 -0.20314,-0.374989 -0.47267,-0.664051 -0.8086,-0.867187 -0.32813,-0.203114 -0.73438,-0.304676 -1.21875,-0.304688 m 0.29297,12.046875 c -0.86719,0 -1.64844,-0.144531 -2.34375,-0.433594 -0.6875,-0.296874 -1.26953,-0.726561 -1.74609,-1.289062 -0.47657,-0.562498 -0.84375,-1.249997 -1.10156,-2.0625 -0.25,-0.820308 -0.375,-1.749995 -0.375,-2.789063 0,-2.242178 0.46093,-3.929677 1.38281,-5.0625 0.92187,-1.1328 2.23437,-1.699205 3.9375,-1.699218 0.77343,1.3e-5 1.46874,0.121106 2.08594,0.363281 0.61718,0.2422 1.14061,0.605481 1.57031,1.089844 0.42968,0.476573 0.7578,1.074229 0.98437,1.792968 0.23437,0.710947 0.35156,1.539071 0.35157,2.484375 l 0,1.101563 -7.99219,0 c 0.0156,0.875005 0.10156,1.628911 0.25781,2.261719 0.16406,0.625003 0.39453,1.140628 0.69141,1.546875 0.30468,0.406252 0.67577,0.707033 1.11328,0.902343 0.43749,0.187502 0.9414,0.281252 1.51172,0.28125 0.41405,2e-6 0.79687,-0.04687 1.14844,-0.140625 0.35936,-0.09375 0.68358,-0.218748 0.97265,-0.375 0.28905,-0.156248 0.54296,-0.332029 0.76172,-0.527343 0.22655,-0.203123 0.41015,-0.41406 0.55078,-0.632813 0.10937,0.04688 0.21093,0.144534 0.30469,0.292969 0.10155,0.14844 0.15233,0.324221 0.15234,0.527344 -1e-5,0.242189 -0.0859,0.503908 -0.25781,0.785156 -0.17188,0.273439 -0.4336,0.527345 -0.78516,0.761719 -0.35157,0.234375 -0.79297,0.429687 -1.32421,0.585937 -0.52345,0.15625 -1.14064,0.234375 -1.85157,0.234375"
       style="font-size:24px;text-align:center;text-anchor:middle;-inkscape-font-specification:Noto Serif"
       id="path3184" />
    <path
       d="m 203.71739,24.813005 c 0,0.750003 0.15625,1.312503 0.46875,1.6875 0.32031,0.367189 0.8125,0.550783 1.47656,0.550782 0.48437,1e-6 0.92187,-0.07812 1.3125,-0.234375 0.39843,-0.156249 0.73437,-0.378905 1.00782,-0.667969 0.28124,-0.28906 0.49608,-0.640622 0.64453,-1.054688 0.14843,-0.414058 0.22265,-0.874995 0.22265,-1.382812 l 0,-1.945313 -1.53515,0.07031 c -0.6797,0.03126 -1.25001,0.117194 -1.71094,0.257812 -0.45313,0.132819 -0.82032,0.324225 -1.10156,0.574219 -0.28126,0.242193 -0.48438,0.542974 -0.60938,0.902344 -0.11719,0.359379 -0.17578,0.773441 -0.17578,1.242187 m 2.90625,-8.425781 c -0.46094,1.2e-5 -0.83594,0.06642 -1.125,0.199219 -0.28125,0.125012 -0.50391,0.304699 -0.66797,0.539062 -0.15625,0.234386 -0.26172,0.51173 -0.3164,0.832032 -0.0547,0.320322 -0.082,0.667978 -0.082,1.042968 -0.66407,10e-6 -1.17188,-0.113271 -1.52344,-0.339843 -0.34375,-0.226553 -0.51563,-0.617178 -0.51563,-1.171875 0,-0.414052 0.11328,-0.765614 0.33985,-1.054688 0.22656,-0.28905 0.53515,-0.523425 0.92578,-0.703125 0.39843,-0.187487 0.85937,-0.324206 1.38281,-0.410156 0.52343,-0.08592 1.08203,-0.128893 1.67578,-0.128906 0.73437,1.3e-5 1.37499,0.07423 1.92188,0.222656 0.54686,0.140638 1.00389,0.375012 1.37109,0.703125 0.36718,0.328137 0.64062,0.757824 0.82031,1.289062 0.18749,0.523448 0.28124,1.167979 0.28125,1.933594 l 0,6.222656 c -1e-5,0.33594 0.0273,0.613284 0.082,0.832032 0.0547,0.218751 0.14062,0.394532 0.25782,0.527343 0.11717,0.132814 0.26952,0.226564 0.45703,0.28125 0.1953,0.05469 0.42577,0.08203 0.6914,0.08203 l 0.0703,0 0,1.007812 -3.2461,0 -0.375,-2.0625 -0.19922,0 c -0.25,0.335939 -0.49219,0.644533 -0.72656,0.925781 -0.23438,0.281251 -0.49219,0.523439 -0.77344,0.726563 -0.28125,0.203125 -0.60156,0.359375 -0.96093,0.46875 -0.35157,0.117187 -0.77735,0.175781 -1.27735,0.175781 -0.53125,0 -1.02734,-0.07813 -1.48828,-0.234375 -0.45313,-0.148437 -0.84766,-0.378906 -1.18359,-0.691406 -0.32813,-0.320312 -0.58594,-0.718749 -0.77344,-1.195313 -0.1875,-0.484372 -0.28125,-1.054684 -0.28125,-1.710937 0,-1.273433 0.45312,-2.218744 1.35938,-2.835938 0.90624,-0.61718 2.27733,-0.953117 4.11328,-1.007812 l 1.99218,-0.07031 0,-1.441406 c 0,-0.429678 -0.0234,-0.824209 -0.0703,-1.183594 -0.0469,-0.367177 -0.14844,-0.679676 -0.30469,-0.9375 -0.15625,-0.265613 -0.38282,-0.468738 -0.67968,-0.609375 -0.28907,-0.148425 -0.6797,-0.222644 -1.17188,-0.222656"
       style="font-size:24px;text-align:center;text-anchor:middle;-inkscape-font-specification:Noto Serif"
       id="path3186" />
    <path
       d="m 113.94005,58.293474 0,-1.007812 0.3164,0 c 0.27343,10e-7 0.52734,-0.01953 0.76172,-0.05859 0.24218,-0.03906 0.44921,-0.117186 0.6211,-0.234375 0.17967,-0.124999 0.3203,-0.30078 0.42187,-0.527344 0.10936,-0.22656 0.16405,-0.527341 0.16406,-0.902344 l 0,-5.625 -7.80468,0 0,5.625 c -1e-5,0.375003 0.0508,0.675784 0.15234,0.902344 0.10937,0.226564 0.24999,0.402345 0.42188,0.527344 0.17968,0.117189 0.39061,0.195314 0.63281,0.234375 0.24218,0.03906 0.49608,0.05859 0.76172,0.05859 l 0.3164,0 0,1.007812 -6.98437,0 0,-1.007812 0.30469,0 c 0.27343,10e-7 0.52734,-0.01953 0.76171,-0.05859 0.24219,-0.03906 0.45313,-0.117186 0.63282,-0.234375 0.17968,-0.124999 0.32031,-0.30078 0.42187,-0.527344 0.10156,-0.22656 0.15234,-0.527341 0.15235,-0.902344 l 0,-11.765625 c -10e-6,-0.351547 -0.0547,-0.632797 -0.16407,-0.84375 -0.10156,-0.218734 -0.24219,-0.386703 -0.42187,-0.503906 -0.17969,-0.117171 -0.39063,-0.19139 -0.63281,-0.222656 -0.23438,-0.03905 -0.48438,-0.05858 -0.75,-0.05859 l -0.30469,0 0,-1.007812 6.98437,0 0,1.007812 -0.3164,0 c -0.26564,1.6e-5 -0.51954,0.01955 -0.76172,0.05859 -0.2422,0.03908 -0.45313,0.12111 -0.63281,0.246094 -0.17189,0.117203 -0.31251,0.289078 -0.42188,0.515625 -0.10157,0.226577 -0.15235,0.527358 -0.15234,0.902343 l 0,4.851563 7.80468,0 0,-4.851563 c -1e-5,-0.374985 -0.0547,-0.675766 -0.16406,-0.902343 -0.10157,-0.226547 -0.2422,-0.398422 -0.42187,-0.515625 -0.17189,-0.124984 -0.37892,-0.207016 -0.6211,-0.246094 -0.23438,-0.03905 -0.48829,-0.05858 -0.76172,-0.05859 l -0.3164,0 0,-1.007812 6.98437,0 0,1.007812 -0.30468,0 c -0.27346,1.6e-5 -0.53127,0.01955 -0.77344,0.05859 -0.23439,0.03908 -0.44142,0.12111 -0.6211,0.246094 -0.1797,0.117203 -0.32032,0.289078 -0.42187,0.515625 -0.10158,0.226577 -0.15236,0.527358 -0.15234,0.902343 l 0,11.789063 c -2e-5,0.351565 0.0508,0.636721 0.15234,0.855469 0.10936,0.210939 0.25389,0.371095 0.43359,0.480468 0.17967,0.109377 0.38671,0.183595 0.6211,0.222657 0.24217,0.03125 0.49607,0.04688 0.76172,0.04687 l 0.30468,0 0,1.007812 -6.98437,0"
       style="font-size:24px;text-align:center;text-anchor:middle;-inkscape-font-specification:Noto Serif"
       id="path3188" />
    <path
       d="m 125.36583,54.813005 c 0,0.750003 0.15625,1.312503 0.46875,1.6875 0.32031,0.367189 0.81249,0.550783 1.47656,0.550782 0.48437,10e-7 0.92187,-0.07812 1.3125,-0.234375 0.39843,-0.156249 0.73437,-0.378905 1.00781,-0.667969 0.28125,-0.28906 0.49609,-0.640622 0.64454,-1.054688 0.14842,-0.414058 0.22264,-0.874995 0.22265,-1.382812 l 0,-1.945313 -1.53515,0.07031 c -0.6797,0.03126 -1.25001,0.117194 -1.71094,0.257812 -0.45313,0.132819 -0.82032,0.324225 -1.10156,0.574219 -0.28126,0.242193 -0.48438,0.542974 -0.60938,0.902344 -0.11719,0.359379 -0.17578,0.773441 -0.17578,1.242187 m 2.90625,-8.425781 c -0.46094,1.2e-5 -0.83594,0.06642 -1.125,0.199219 -0.28126,0.125012 -0.50391,0.304699 -0.66797,0.539062 -0.15625,0.234386 -0.26172,0.51173 -0.31641,0.832032 -0.0547,0.320322 -0.082,0.667978 -0.082,1.042968 -0.66406,1e-5 -1.17187,-0.113271 -1.52343,-0.339843 -0.34376,-0.226553 -0.51563,-0.617178 -0.51563,-1.171875 0,-0.414052 0.11328,-0.765614 0.33984,-1.054688 0.22656,-0.28905 0.53516,-0.523425 0.92579,-0.703125 0.39843,-0.187487 0.85937,-0.324206 1.38281,-0.410156 0.52343,-0.08592 1.08202,-0.128893 1.67578,-0.128906 0.73437,1.3e-5 1.37499,0.07423 1.92187,0.222656 0.54687,0.140638 1.0039,0.375012 1.3711,0.703125 0.36718,0.328137 0.64061,0.757824 0.82031,1.289062 0.18749,0.523448 0.28124,1.167979 0.28125,1.933594 l 0,6.222656 c -1e-5,0.33594 0.0273,0.613284 0.082,0.832032 0.0547,0.218751 0.14062,0.394532 0.25781,0.527343 0.11718,0.132814 0.26952,0.226564 0.45704,0.28125 0.1953,0.05469 0.42576,0.08203 0.6914,0.08203 l 0.0703,0 0,1.007812 -3.24609,0 -0.375,-2.0625 -0.19922,0 c -0.25001,0.335939 -0.49219,0.644533 -0.72656,0.925781 -0.23438,0.281251 -0.4922,0.523439 -0.77344,0.726563 -0.28125,0.203125 -0.60157,0.359375 -0.96094,0.46875 -0.35156,0.117187 -0.77734,0.175781 -1.27734,0.175781 -0.53125,0 -1.02735,-0.07813 -1.48828,-0.234375 -0.45313,-0.148437 -0.84766,-0.378906 -1.18359,-0.691406 -0.32813,-0.320312 -0.58594,-0.718749 -0.77344,-1.195313 -0.1875,-0.484372 -0.28125,-1.054684 -0.28125,-1.710937 0,-1.273433 0.45312,-2.218744 1.35937,-2.835938 0.90625,-0.61718 2.27734,-0.953117 4.11328,-1.007812 l 1.99219,-0.07031 0,-1.441406 c -1e-5,-0.429678 -0.0234,-0.824209 -0.0703,-1.183594 -0.0469,-0.367177 -0.14845,-0.679676 -0.30469,-0.9375 -0.15626,-0.265613 -0.38282,-0.468738 -0.67969,-0.609375 -0.28907,-0.148425 -0.67969,-0.222644 -1.17187,-0.222656"
       style="font-size:24px;text-align:center;text-anchor:middle;-inkscape-font-specification:Noto Serif"
       id="path3190" />
    <path
       d="m 142.13536,58.527849 c -0.79688,0 -1.53125,-0.121094 -2.20312,-0.363281 -0.67188,-0.25 -1.25001,-0.640624 -1.73438,-1.171875 -0.48438,-0.531248 -0.86328,-1.210935 -1.13672,-2.039063 -0.26562,-0.835933 -0.39844,-1.843744 -0.39844,-3.023437 0,-1.281242 0.13282,-2.351554 0.39844,-3.210938 0.27344,-0.867177 0.64844,-1.562488 1.125,-2.085937 0.48437,-0.523425 1.05078,-0.894519 1.69922,-1.113281 0.65625,-0.218737 1.36328,-0.328112 2.12109,-0.328125 0.5,1.3e-5 0.99609,0.05079 1.48829,0.152343 0.49999,0.09376 0.94921,0.242201 1.34765,0.445313 0.39843,0.203137 0.72265,0.460949 0.97266,0.773437 0.24999,0.304699 0.37499,0.664074 0.375,1.078125 -1e-5,0.554698 -0.1797,0.945323 -0.53906,1.171875 -0.35939,0.226572 -0.89454,0.339853 -1.60547,0.339844 -1e-5,-0.37499 -0.0313,-0.730459 -0.0937,-1.066406 -0.0625,-0.335927 -0.17189,-0.628895 -0.32813,-0.878906 -0.14844,-0.257801 -0.35547,-0.45702 -0.62109,-0.597657 -0.25782,-0.148425 -0.58985,-0.222644 -0.9961,-0.222656 -0.46094,1.2e-5 -0.87891,0.08595 -1.2539,0.257813 -0.36719,0.171886 -0.6836,0.468761 -0.94922,0.890625 -0.26563,0.421885 -0.46875,0.988291 -0.60938,1.699218 -0.14062,0.710946 -0.21094,1.60157 -0.21093,2.671875 -1e-5,1.70313 0.28124,2.97266 0.84375,3.808594 0.5703,0.835939 1.49999,1.253908 2.78906,1.253906 0.74218,2e-6 1.39062,-0.156248 1.94531,-0.46875 0.55468,-0.312497 0.96874,-0.714841 1.24219,-1.207031 0.11718,0.09375 0.21483,0.218753 0.29297,0.375 0.0781,0.156253 0.11717,0.343752 0.11719,0.5625 -2e-5,0.273439 -0.0859,0.546877 -0.25782,0.820313 -0.17188,0.273438 -0.42969,0.519532 -0.77343,0.738281 -0.33595,0.21875 -0.75783,0.394531 -1.26563,0.527344 -0.50782,0.140625 -1.10157,0.210937 -1.78125,0.210937"
       style="font-size:24px;text-align:center;text-anchor:middle;-inkscape-font-specification:Noto Serif"
       id="path3192" />
    <path
       d="m 155.2838,50.570818 3.19922,4.746094 c 0.41405,0.640627 0.8242,1.128908 1.23047,1.464843 0.41405,0.335939 0.89061,0.503908 1.42968,0.503907 l 0.0703,0 0,1.007812 -0.33985,0 c -0.69532,0 -1.26954,-0.01953 -1.72265,-0.05859 -0.44533,-0.04687 -0.83205,-0.148437 -1.16016,-0.304687 -0.32814,-0.164062 -0.62892,-0.398437 -0.90234,-0.703125 -0.27345,-0.312499 -0.57814,-0.734373 -0.91407,-1.265625 l -2.40234,-3.761719 -1.76953,1.3125 0,2.167969 c -1e-5,0.351565 0.0508,0.636721 0.15234,0.855469 0.10937,0.210939 0.2539,0.371095 0.4336,0.480468 0.17968,0.109377 0.38671,0.183595 0.62109,0.222657 0.24218,0.03125 0.49609,0.04688 0.76172,0.04687 l 0.0703,0 0,1.007812 -6.45703,0 0,-1.007812 0.1875,0 c 0.27344,10e-7 0.52734,-0.01953 0.76172,-0.05859 0.24218,-0.03906 0.44922,-0.117186 0.62109,-0.234375 0.17969,-0.124999 0.32031,-0.30078 0.42188,-0.527344 0.10937,-0.22656 0.16406,-0.527341 0.16406,-0.902344 l 0,-12.867187 c 0,-0.351547 -0.0547,-0.632796 -0.16406,-0.84375 -0.10157,-0.218733 -0.24219,-0.386702 -0.42188,-0.503906 -0.17969,-0.117171 -0.39062,-0.191389 -0.63281,-0.222657 -0.23438,-0.03904 -0.48438,-0.05858 -0.75,-0.05859 l -0.1875,0 0,-1.007813 4.41797,0 0,9.257813 c -1e-5,0.218758 -0.004,0.500008 -0.0117,0.84375 -0.008,0.335945 -0.0195,0.667976 -0.0352,0.996093 -0.0156,0.375007 -0.0313,0.769538 -0.0469,1.183594 l 3,-3.28125 c 0.2578,-0.289053 0.46874,-0.542959 0.63281,-0.761719 0.17187,-0.218739 0.30859,-0.410145 0.41016,-0.574218 0.10155,-0.164052 0.17186,-0.308583 0.21093,-0.433594 0.0391,-0.132801 0.0586,-0.257801 0.0586,-0.375 -1e-5,-0.203113 -0.0977,-0.33202 -0.29297,-0.386719 -0.18751,-0.06249 -0.48048,-0.09374 -0.87891,-0.09375 l 0,-1.007812 5.29688,0 0,1.007812 c -0.5547,1.2e-5 -1.10158,0.195324 -1.64063,0.585938 -0.53126,0.390636 -1.10938,0.941416 -1.73437,1.652343 l -1.6875,1.898438"
       style="font-size:24px;text-align:center;text-anchor:middle;-inkscape-font-specification:Noto Serif"
       id="path3194" />
    <path
       d="m 166.25255,58.527849 c -0.60157,0 -1.14844,-0.05469 -1.64063,-0.164062 -0.48437,-0.101563 -0.89844,-0.257813 -1.24218,-0.46875 -0.34376,-0.21875 -0.60938,-0.484374 -0.79688,-0.796875 -0.1875,-0.320311 -0.28125,-0.691405 -0.28125,-1.113282 0,-0.320309 0.0508,-0.585934 0.15234,-0.796875 0.10938,-0.218746 0.23828,-0.390621 0.38672,-0.515625 0.15625,-0.124996 0.32031,-0.210933 0.49219,-0.257812 0.17969,-0.05468 0.33984,-0.08203 0.48047,-0.08203 0,0.421878 0.043,0.816409 0.12891,1.183593 0.0859,0.36719 0.23046,0.691409 0.43359,0.972657 0.20312,0.273439 0.46875,0.492189 0.79687,0.65625 0.33594,0.156251 0.74609,0.234376 1.23047,0.234375 0.42969,10e-7 0.80859,-0.05078 1.13672,-0.152344 0.32812,-0.109374 0.60156,-0.257811 0.82031,-0.445313 0.22656,-0.19531 0.39843,-0.425779 0.51563,-0.691406 0.11718,-0.273435 0.17577,-0.57031 0.17578,-0.890625 -1e-5,-0.296871 -0.0469,-0.550777 -0.14062,-0.761719 -0.0859,-0.218745 -0.2422,-0.42187 -0.46875,-0.609375 -0.21876,-0.187495 -0.51954,-0.378901 -0.90235,-0.574218 -0.38282,-0.195308 -0.86328,-0.417964 -1.4414,-0.667969 -0.6172,-0.273432 -1.15626,-0.53515 -1.61719,-0.785156 -0.45313,-0.257806 -0.82813,-0.53515 -1.125,-0.832032 -0.29688,-0.296867 -0.51953,-0.632804 -0.66797,-1.007812 -0.14844,-0.382804 -0.22266,-0.835928 -0.22266,-1.359375 0,-0.546865 0.10547,-1.031239 0.31641,-1.453125 0.21875,-0.421863 0.52734,-0.773426 0.92578,-1.054688 0.39844,-0.28905 0.875,-0.507799 1.42969,-0.65625 0.55468,-0.148424 1.17187,-0.222643 1.85156,-0.222656 0.57031,1.3e-5 1.07421,0.05861 1.51172,0.175781 0.43749,0.117201 0.80468,0.277357 1.10156,0.480469 0.29687,0.195325 0.51952,0.4297 0.66797,0.703125 0.14843,0.265637 0.22265,0.546886 0.22266,0.84375 -1e-5,0.437511 -0.15236,0.789073 -0.45703,1.054688 -0.29689,0.257822 -0.72267,0.386728 -1.27735,0.386718 -1e-5,-0.804677 -0.16797,-1.429676 -0.5039,-1.875 -0.32814,-0.4453 -0.84767,-0.667956 -1.5586,-0.667968 -0.40625,1.2e-5 -0.75391,0.04689 -1.04297,0.140625 -0.28906,0.09376 -0.52734,0.226574 -0.71484,0.398437 -0.17969,0.171886 -0.3125,0.375011 -0.39844,0.609375 -0.0859,0.234386 -0.12891,0.492198 -0.1289,0.773438 -1e-5,0.304697 0.0547,0.570322 0.16406,0.796875 0.10937,0.218759 0.28124,0.421884 0.51562,0.609375 0.24219,0.187508 0.55078,0.371102 0.92578,0.550781 0.38281,0.171883 0.83984,0.367195 1.3711,0.585937 0.6328,0.265633 1.17577,0.527351 1.6289,0.785157 0.45312,0.257819 0.82421,0.539068 1.11329,0.84375 0.29686,0.304693 0.51561,0.648442 0.65625,1.03125 0.14061,0.382817 0.21092,0.824222 0.21093,1.324218 -1e-5,0.625003 -0.11329,1.171878 -0.33984,1.640625 -0.22657,0.468752 -0.54688,0.863283 -0.96094,1.183594 -0.41407,0.312501 -0.91407,0.546875 -1.5,0.703125 -0.57813,0.15625 -1.22266,0.234375 -1.93359,0.234375"
       style="font-size:24px;text-align:center;text-anchor:middle;-inkscape-font-specification:Noto Serif"
       id="path3196" />
    <path
       d="m 180.15099,46.727068 c -0.62501,1.2e-5 -1.14845,0.10548 -1.57032,0.316406 -0.41407,0.203136 -0.7461,0.515636 -0.99609,0.9375 -0.25001,0.421885 -0.42969,0.953135 -0.53906,1.59375 -0.10157,0.640633 -0.15235,1.394539 -0.15235,2.261719 0,0.835943 0.0508,1.574224 0.15235,2.214844 0.10937,0.640628 0.28905,1.17969 0.53906,1.617187 0.25781,0.437502 0.59374,0.769533 1.00781,0.996094 0.42187,0.218751 0.94921,0.328126 1.58203,0.328125 0.53124,10e-7 0.98046,-0.109374 1.34766,-0.328125 0.37499,-0.226561 0.67968,-0.558592 0.91406,-0.996094 0.24218,-0.437497 0.41796,-0.976559 0.52735,-1.617187 0.10936,-0.648433 0.16405,-1.394526 0.16406,-2.238282 -1e-5,-0.851555 -0.0547,-1.593741 -0.16406,-2.226562 -0.10939,-0.640616 -0.28517,-1.171865 -0.52735,-1.59375 -0.23438,-0.421864 -0.54298,-0.73827 -0.92578,-0.949219 -0.37501,-0.210926 -0.82813,-0.316394 -1.35937,-0.316406 m 5.30859,5.109375 c -10e-6,1.156255 -0.10939,2.156254 -0.32813,3 -0.21095,0.843753 -0.52345,1.539064 -0.9375,2.085937 -0.41407,0.546876 -0.92579,0.953126 -1.53515,1.21875 -0.60939,0.257813 -1.3086,0.386719 -2.09766,0.386719 -0.46094,0 -0.87891,-0.05078 -1.2539,-0.152344 -0.37501,-0.101562 -0.71485,-0.246093 -1.01954,-0.433593 -0.29688,-0.1875 -0.5625,-0.410156 -0.79687,-0.667969 -0.22657,-0.257811 -0.42579,-0.542967 -0.59766,-0.855469 l -0.0937,0 c 0.0156,0.414064 0.0313,0.800783 0.0469,1.160156 0.008,0.148439 0.0117,0.304688 0.0117,0.46875 0.008,0.156251 0.0117,0.304688 0.0117,0.445313 0.008,0.140625 0.0117,0.265624 0.0117,0.375 0.008,0.117187 0.0117,0.20703 0.0117,0.269531 l 0,2.296875 c 0,0.351559 0.0508,0.632809 0.15235,0.84375 0.10937,0.218746 0.2539,0.382808 0.43359,0.492188 0.17968,0.117183 0.38671,0.191401 0.62109,0.222656 0.24219,0.03906 0.49609,0.05859 0.76172,0.05859 l 0.0703,0 0,1.007812 -6.45704,0 0,-1.007812 0.1875,0 c 0.27344,-5e-6 0.52735,-0.01954 0.76172,-0.05859 0.24219,-0.03907 0.44922,-0.121098 0.6211,-0.246094 0.17968,-0.117192 0.32031,-0.292973 0.42187,-0.527344 0.10937,-0.226566 0.16406,-0.527347 0.16406,-0.902343 l 0,-13.242188 c 0,-0.351552 -0.0547,-0.632801 -0.16406,-0.84375 -0.10156,-0.218739 -0.24219,-0.386707 -0.42187,-0.503906 -0.17969,-0.117176 -0.39063,-0.195301 -0.63282,-0.234375 -0.23437,-0.03905 -0.48437,-0.05858 -0.75,-0.05859 l -0.30468,0 0,-1.007812 4.19531,0 0.24609,2.167968 0.0937,0 c 0.17969,-0.367176 0.38281,-0.699207 0.60938,-0.996093 0.22656,-0.296863 0.48827,-0.546863 0.78515,-0.75 0.29687,-0.210925 0.63281,-0.371081 1.00782,-0.480469 0.37499,-0.117175 0.79686,-0.175768 1.26562,-0.175781 0.78906,1.3e-5 1.48827,0.132825 2.09766,0.398437 0.60936,0.257825 1.12108,0.660168 1.53515,1.207031 0.41405,0.539074 0.72655,1.226573 0.9375,2.0625 0.21874,0.835947 0.32812,1.828133 0.32813,2.976563"
       style="font-size:24px;text-align:center;text-anchor:middle;-inkscape-font-specification:Noto Serif"
       id="path3198" />
    <path
       d="m 190.2877,54.813005 c 0,0.750003 0.15625,1.312503 0.46875,1.6875 0.32031,0.367189 0.8125,0.550783 1.47657,0.550782 0.48437,10e-7 0.92187,-0.07812 1.3125,-0.234375 0.39843,-0.156249 0.73436,-0.378905 1.00781,-0.667969 0.28124,-0.28906 0.49608,-0.640622 0.64453,-1.054688 0.14843,-0.414058 0.22265,-0.874995 0.22266,-1.382812 l 0,-1.945313 -1.53516,0.07031 c -0.67969,0.03126 -1.25001,0.117194 -1.71094,0.257812 -0.45313,0.132819 -0.82031,0.324225 -1.10156,0.574219 -0.28125,0.242193 -0.48438,0.542974 -0.60937,0.902344 -0.1172,0.359379 -0.17579,0.773441 -0.17579,1.242187 m 2.90625,-8.425781 c -0.46094,1.2e-5 -0.83594,0.06642 -1.125,0.199219 -0.28125,0.125012 -0.50391,0.304699 -0.66796,0.539062 -0.15626,0.234386 -0.26173,0.51173 -0.31641,0.832032 -0.0547,0.320322 -0.082,0.667978 -0.082,1.042968 -0.66407,1e-5 -1.17188,-0.113271 -1.52344,-0.339843 -0.34375,-0.226553 -0.51563,-0.617178 -0.51562,-1.171875 -1e-5,-0.414052 0.11327,-0.765614 0.33984,-1.054688 0.22656,-0.28905 0.53515,-0.523425 0.92578,-0.703125 0.39843,-0.187487 0.85937,-0.324206 1.38281,-0.410156 0.52344,-0.08592 1.08203,-0.128893 1.67578,-0.128906 0.73437,1.3e-5 1.375,0.07423 1.92188,0.222656 0.54687,0.140638 1.0039,0.375012 1.37109,0.703125 0.36718,0.328137 0.64062,0.757824 0.82032,1.289062 0.18748,0.523448 0.28123,1.167979 0.28125,1.933594 l 0,6.222656 c -2e-5,0.33594 0.0273,0.613284 0.082,0.832032 0.0547,0.218751 0.14061,0.394532 0.25781,0.527343 0.11718,0.132814 0.26952,0.226564 0.45703,0.28125 0.1953,0.05469 0.42577,0.08203 0.69141,0.08203 l 0.0703,0 0,1.007812 -3.24609,0 -0.375,-2.0625 -0.19922,0 c -0.25001,0.335939 -0.4922,0.644533 -0.72657,0.925781 -0.23438,0.281251 -0.49219,0.523439 -0.77343,0.726563 -0.28126,0.203125 -0.60157,0.359375 -0.96094,0.46875 -0.35157,0.117187 -0.77735,0.175781 -1.27734,0.175781 -0.53126,0 -1.02735,-0.07813 -1.48829,-0.234375 -0.45312,-0.148437 -0.84765,-0.378906 -1.18359,-0.691406 -0.32813,-0.320312 -0.58594,-0.718749 -0.77344,-1.195313 -0.1875,-0.484372 -0.28125,-1.054684 -0.28125,-1.710937 0,-1.273433 0.45313,-2.218744 1.35938,-2.835938 0.90624,-0.61718 2.27734,-0.953117 4.11328,-1.007812 l 1.99219,-0.07031 0,-1.441406 c -1e-5,-0.429678 -0.0234,-0.824209 -0.0703,-1.183594 -0.0469,-0.367177 -0.14844,-0.679676 -0.30468,-0.9375 -0.15626,-0.265613 -0.38282,-0.468738 -0.67969,-0.609375 -0.28907,-0.148425 -0.67969,-0.222644 -1.17188,-0.222656"
       style="font-size:24px;text-align:center;text-anchor:middle;-inkscape-font-specification:Noto Serif"
       id="path3200" />
    <path
       d="m 207.05724,58.527849 c -0.79689,0 -1.53126,-0.121094 -2.20313,-0.363281 -0.67188,-0.25 -1.25,-0.640624 -1.73437,-1.171875 -0.48438,-0.531248 -0.86329,-1.210935 -1.13672,-2.039063 -0.26563,-0.835933 -0.39844,-1.843744 -0.39844,-3.023437 0,-1.281242 0.13281,-2.351554 0.39844,-3.210938 0.27343,-0.867177 0.64843,-1.562488 1.125,-2.085937 0.48437,-0.523425 1.05077,-0.894519 1.69922,-1.113281 0.65624,-0.218737 1.36327,-0.328112 2.12109,-0.328125 0.49999,1.3e-5 0.99609,0.05079 1.48828,0.152343 0.49999,0.09376 0.94921,0.242201 1.34766,0.445313 0.39842,0.203137 0.72264,0.460949 0.97265,0.773437 0.24999,0.304699 0.37499,0.664074 0.375,1.078125 -1e-5,0.554698 -0.17969,0.945323 -0.53906,1.171875 -0.35938,0.226572 -0.89454,0.339853 -1.60547,0.339844 -1e-5,-0.37499 -0.0313,-0.730459 -0.0937,-1.066406 -0.0625,-0.335927 -0.17188,-0.628895 -0.32812,-0.878906 -0.14845,-0.257801 -0.35548,-0.45702 -0.6211,-0.597657 -0.25782,-0.148425 -0.58985,-0.222644 -0.99609,-0.222656 -0.46094,1.2e-5 -0.87891,0.08595 -1.25391,0.257813 -0.36719,0.171886 -0.6836,0.468761 -0.94922,0.890625 -0.26562,0.421885 -0.46875,0.988291 -0.60937,1.699218 -0.14063,0.710946 -0.21094,1.60157 -0.21094,2.671875 0,1.70313 0.28125,2.97266 0.84375,3.808594 0.57031,0.835939 1.5,1.253908 2.78906,1.253906 0.74218,2e-6 1.39062,-0.156248 1.94532,-0.46875 0.55467,-0.312497 0.96874,-0.714841 1.24218,-1.207031 0.11718,0.09375 0.21484,0.218753 0.29297,0.375 0.0781,0.156253 0.11718,0.343752 0.11719,0.5625 -1e-5,0.273439 -0.0859,0.546877 -0.25781,0.820313 -0.17189,0.273438 -0.4297,0.519532 -0.77344,0.738281 -0.33595,0.21875 -0.75782,0.394531 -1.26562,0.527344 -0.50782,0.140625 -1.10157,0.210937 -1.78125,0.210937"
       style="font-size:24px;text-align:center;text-anchor:middle;-inkscape-font-specification:Noto Serif"
       id="path3202" />
    <path
       d="m 218.67052,46.480974 c -0.89063,1.2e-5 -1.57813,0.363293 -2.0625,1.089844 -0.47657,0.71876 -0.75782,1.773446 -0.84375,3.164062 l 5.51953,0 c -1e-5,-0.632804 -0.0469,-1.210928 -0.14063,-1.734375 -0.0938,-0.523427 -0.24219,-0.972646 -0.44531,-1.347656 -0.20313,-0.374989 -0.47266,-0.664051 -0.80859,-0.867187 -0.32814,-0.203114 -0.73439,-0.304676 -1.21875,-0.304688 m 0.29297,12.046875 c -0.8672,0 -1.64845,-0.144531 -2.34375,-0.433594 -0.68751,-0.296874 -1.26954,-0.726561 -1.7461,-1.289062 -0.47656,-0.562498 -0.84375,-1.249997 -1.10156,-2.0625 -0.25,-0.820308 -0.375,-1.749995 -0.375,-2.789063 0,-2.242178 0.46094,-3.929677 1.38281,-5.0625 0.92187,-1.1328 2.23437,-1.699205 3.9375,-1.699218 0.77343,1.3e-5 1.46874,0.121106 2.08594,0.363281 0.61718,0.2422 1.14061,0.605481 1.57031,1.089844 0.42968,0.476573 0.7578,1.074229 0.98438,1.792968 0.23436,0.710947 0.35155,1.539071 0.35156,2.484375 l 0,1.101563 -7.99219,0 c 0.0156,0.875005 0.10156,1.628911 0.25781,2.261719 0.16406,0.625003 0.39453,1.140628 0.69141,1.546875 0.30468,0.406252 0.67578,0.707033 1.11328,0.902343 0.4375,0.187502 0.9414,0.281252 1.51172,0.28125 0.41406,2e-6 0.79687,-0.04687 1.14844,-0.140625 0.35936,-0.09375 0.68358,-0.218748 0.97265,-0.375 0.28906,-0.156248 0.54296,-0.332029 0.76172,-0.527343 0.22656,-0.203123 0.41015,-0.41406 0.55078,-0.632813 0.10937,0.04688 0.21093,0.144534 0.30469,0.292969 0.10155,0.14844 0.15233,0.324221 0.15235,0.527344 -2e-5,0.242189 -0.0859,0.503908 -0.25782,0.785156 -0.17188,0.273439 -0.4336,0.527345 -0.78515,0.761719 -0.35158,0.234375 -0.79298,0.429687 -1.32422,0.585937 -0.52345,0.15625 -1.14063,0.234375 -1.85156,0.234375"
       style="font-size:24px;text-align:center;text-anchor:middle;-inkscape-font-specification:Noto Serif"
       id="path3204" />
  </g>
</svg>
