<?xml version="1.0" encoding="utf-8"?>
<!-- Generator: Adobe Illustrator 17.1.0, SVG Export Plug-In . SVG Version: 6.00 Build 0)  -->
<!DOCTYPE svg PUBLIC "-//W3C//DTD SVG 1.1//EN" "http://www.w3.org/Graphics/SVG/1.1/DTD/svg11.dtd">
<svg version="1.1" id="Layer_1" xmlns="http://www.w3.org/2000/svg" xmlns:xlink="http://www.w3.org/1999/xlink" x="0px" y="0px"
	 width="250px" height="75px" viewBox="1 -0.5 250 75" enable-background="new 1 -0.5 250 75" xml:space="preserve">
<g>
	<g>
		<path fill="#06E048" d="M60.22229,15.7838135L37.8108521,2.87854c-1.4940796-0.8964539-3.1002808-1.3073425-4.7998047-1.3073425
			v7.6012268l24.0176392,13.9137878v27.7155151L33.0110474,64.7155457v7.6012268
			c1.6061401,0,3.3057251-0.3922119,4.7998047-1.3073425L60.22229,58.1041565
			c2.8948364-1.6995544,4.7998047-4.7998047,4.7998047-8.1988525V24.0947266
			C64.9287109,20.6956482,63.1171265,17.4833374,60.22229,15.7838135z"/>
		<path fill="#06CA48" d="M8.9934082,50.8017273V23.0862122L33.0110474,9.1724243V1.5711975
			c-1.6061401,0-3.3056641,0.3922119-4.7998047,1.3073425L5.7998047,15.7838135C2.9049683,17.4833374,1,20.5835876,1,23.982666
			v25.8105469c0,3.3990784,1.7929077,6.4993286,4.7998047,8.1988831l22.411438,12.9052734
			c1.4941406,0.8964539,3.1002808,1.307312,4.7998047,1.307312v-7.6012268L8.9934082,50.8017273z"/>
		<polygon fill="#06CA48" points="16.8934937,27.6992493 16.8934937,46.3007507 33.1044312,55.601532 33.1044312,18.398468 		"/>
		<polygon fill="#06E048" points="49.2220459,27.6992493 33.1044312,18.398468 33.1044312,55.601532 49.2220459,46.3007507 		"/>
	</g>
	<g>
		<path fill="#4D514D" d="M87.2281494,26.2985229H83.026001c-0.5042725,0-0.8031006,0.2988281-0.8031006,0.8030701v1.6995544
			h-4.4075928v-4.2955322c0-1.7929382,0.5976562-2.5026245,2.5026245-2.5026245h19.1057739
			c1.9049683,0,2.5026245,0.69104,2.5026245,2.5026245v4.2955322h-4.4075928V27.101593
			c0-0.5042419-0.2987671-0.8030701-0.8030396-0.8030701h-4.2021484v23.1025085H87.414917V26.2985229H87.2281494z"/>
		<path fill="#4D514D" d="M108.7431641,29.3053894c5.6028442,0,8.703125,4.1087646,8.703125,9.3007812
			c0,0.5976257-0.0933838,1.7929077-0.0933838,1.7929077H103.737915c0.3922119,3.4924622,2.8948364,5.3040466,5.9016724,5.3040466
			c3.1936646,0,5.5095215-2.2037964,5.5095215-2.2037964l1.9983521,3.3990784c0,0-3.006897,3.0068665-7.9000854,3.0068665
			c-6.4992676,0-10.6080933-4.7063904-10.6080933-10.3092651C98.7327271,33.5075378,102.8414917,29.3053894,108.7431641,29.3053894z
			 M112.44104,37c-0.0933838-2.4092407-1.6995239-3.9967041-3.697876-3.9967041
			c-2.5026245,0-4.2955322,1.4941101-4.7998047,3.9967041H112.44104z"/>
		<path fill="#4D514D" d="M130.6503906,29.3053894c2.5026245,0,7.0969849,1.0085144,7.0969849,4.4075928v2.2971802h-4.2955322
			v-1.1018982c0-1.1018982-1.6062012-1.4941101-2.8014526-1.4941101c-3.3991089,0-5.8082886,2.5960083-5.8082886,6.1071472
			c0,3.9967041,3.0068359,6.1071167,6.1071167,6.1071167c3.3990479,0,5.8082886-2.7080383,5.8082886-2.7080383l1.9983521,3.3990784
			c0,0-2.8948364,3.4924622-8.3109131,3.4924622c-6.4993286,0-10.6080933-4.5943604-10.6080933-10.3092957
			C119.8555298,33.9931335,123.8522339,29.3053894,130.6503906,29.3053894z"/>
		<path fill="#4D514D" d="M141.1651001,26.9895325c0-0.5976257-0.2988281-0.8030701-0.8031006-0.8030701h-1.4940796V21.984314
			h4.6877441c1.7929077,0,2.5960083,0.8030701,2.5960083,2.5960083v6.9101868c0,1.0085144-0.0933838,1.6995544-0.0933838,1.6995544
			h0.0933838c0.8964233-1.9049988,3.3990479-3.9033508,6.7981567-3.9033508c4.4075317,0,6.9101562,2.2971802,6.9101562,7.5078735
			v7.6945801c0,0.5042725,0.2988281,0.8031006,0.8031006,0.8031006h1.4940796v4.1087646h-4.7064209
			c-1.7929077,0-2.5959473-0.8030701-2.5959473-2.5960083v-9.0019226c0-2.4092407-0.69104-3.9967346-3.1002808-3.9967346
			c-2.5960083,0-4.5943604,1.6995544-5.3040771,4.1087646c-0.2053833,0.8031006-0.2987671,1.6061707-0.2987671,2.5026245v9.0019531
			h-4.8931885V27.0082397h-0.0933838V26.9895325z"/>
		<path fill="#4D514D" d="M172.8773193,29.3053894c5.6029053,0,8.703125,4.1087646,8.703125,9.3007812
			c0,0.5976257-0.0933838,1.7929077-0.0933838,1.7929077h-13.6149902c0.3922119,3.4924622,2.8948364,5.3040466,5.9016724,5.3040466
			c3.1936646,0,5.5095215-2.2037964,5.5095215-2.2037964l1.9983521,3.3990784c0,0-3.0068359,3.0068665-7.9000244,3.0068665
			c-6.4993286,0-10.6080933-4.7063904-10.6080933-10.3092651C162.8668823,33.5075378,166.975647,29.3053894,172.8773193,29.3053894z
			 M176.5751953,37c-0.0933838-2.4092407-1.6995239-3.9967041-3.697876-3.9967041
			c-2.5026245,0-4.2955322,1.4941101-4.7998047,3.9967041H176.5751953z"/>
		<path fill="#4D514D" d="M194.9899902,37h0.5976562v-0.2054443c0-2.8014221-1.1019287-3.9033203-3.6045532-3.9033203
			c-0.8964844,0-2.5960083,0.2054443-2.5960083,1.3073425v1.0085144h-4.5943604v-2.0917358
			c0-3.6979065,5.2106934-4.1087646,7.2090454-4.1087646c6.6113892,0,8.4976807,3.3990479,8.4976807,7.8066406v7.2837219
			c0,0.5042725,0.2988281,0.8031006,0.8031006,0.8031006h1.4940796v4.1087646h-4.4075928
			c-1.7929077,0-2.5026245-1.0085144-2.5026245-2.2037964c0-0.5042725,0-0.8030701,0-0.8030701l0,0
			c0,0-1.4940796,3.4924622-5.9016724,3.4924622c-3.4924316,0-6.7047729-2.2037964-6.7047729-6.1071472
			C183.2799683,37.5042725,191.7776489,37,194.9899902,37z M191.1800537,46.0019531
			c2.5960083,0,4.5009155-2.8014221,4.5009155-5.2106628v-0.5042725h-0.8030396
			c-2.5026245,0-6.6113892,0.2988281-6.6113892,3.1002502C188.1731567,44.8066711,189.1817017,46.0019531,191.1800537,46.0019531z"
			/>
		<path fill="#4D514D" d="M205.5794067,26.9895325c0-0.5976257-0.2988281-0.8030701-0.8031006-0.8030701h-1.4940796V21.984314
			h4.7063599c1.7929688,0,2.5960083,0.8030701,2.5960083,2.5960083v19.8154602c0,0.5042725,0.2988281,0.8031006,0.8031006,0.8031006
			h1.4940796v4.1087646h-4.5942993c-1.9049683,0-2.5960083-0.8030701-2.5960083-2.5960083V26.9895325H205.5794067z"/>
		<path fill="#4D514D" d="M216.5983887,33.6009216h-2.5026245v-3.9033203h2.7080688v-5.3974304h4.7997437v5.3974304h4.5009766
			v3.9033203h-4.5009766v7.9000549c0,3.193634,2.5026245,3.697876,3.9033203,3.697876
			c0.5042725,0,0.8964844-0.0933838,0.8964844-0.0933838v4.2955322c0,0-0.5975952,0.0933838-1.4940796,0.0933838
			c-2.7080688,0-8.1988525-0.8030701-8.1988525-7.3957825v-8.4976807H216.5983887L216.5983887,33.6009216z"/>
		<path fill="#4D514D" d="M229.9892578,26.9895325c0-0.5976257-0.2988281-0.8030701-0.8031006-0.8030701h-1.4940796V21.984314
			h4.7063599c1.7929077,0,2.5960083,0.8030701,2.5960083,2.5960083v6.9101868c0,1.0085144-0.0933838,1.6995544-0.0933838,1.6995544
			h0.0933838c0.8964844-1.9049988,3.3990479-3.9033508,6.7981567-3.9033508c4.4075928,0,6.9102173,2.2971802,6.9102173,7.5078735
			v7.6945801c0,0.5042725,0.2988281,0.8031006,0.8031006,0.8031006H251v4.1087646h-4.7064209
			c-1.7929077,0-2.5960083-0.8030701-2.5960083-2.5960083v-9.0019226c0-2.4092407-0.690979-3.9967346-3.1002197-3.9967346
			c-2.5960083,0-4.5943604,1.6995544-5.3040771,4.1087646c-0.2053833,0.8031006-0.2987671,1.6061707-0.2987671,2.5026245v9.0019531
			h-4.8931885V27.0082397h-0.1120605V26.9895325L229.9892578,26.9895325z"/>
	</g>
	<g>
		<g>
			<path fill="#4D524D" d="M89.3012085,68.7122498c0.8964844,0,1.4940796-0.2054443,1.9983521-0.5042725
				s0.69104-0.8030701,0.69104-1.4941101c0-0.3921814-0.0933838-0.6910095-0.2054443-1.0085144
				c-0.2054443-0.2987976-0.3922119-0.5042419-0.5976562-0.6910095c-0.2988281-0.2054443-0.5042725-0.2988281-0.8964233-0.5042725
				c-0.2988281-0.0933838-0.69104-0.2987976-1.0085449-0.3921814c-0.5042725-0.2054443-0.8964844-0.3922119-1.1952515-0.5976562
				c-0.2988281-0.2054138-0.69104-0.3921814-0.8964844-0.5976257c-0.2988281-0.2054443-0.5042725-0.5042725-0.5976562-0.8031006
				c-0.0933838-0.2987976-0.2054443-0.6910095-0.2054443-1.1018982c0-0.8964539,0.2988281-1.6995239,0.8964844-2.2037964
				c0.5976562-0.5042419,1.4940796-0.6910095,2.5960083-0.6910095c0.2988281,0,0.5975952,0,0.8964233,0.0933838
				c0.2988281,0,0.5976562,0.0933838,0.8031006,0.2054443c0.2054443,0.0933838,0.5042725,0.0933838,0.69104,0.2054138
				c0.1867065,0.1120605,0.3921509,0.2054443,0.5042114,0.2988281l-0.3921509,0.8964539
				c-0.2988281-0.2054443-0.69104-0.3922119-1.1019287-0.5042725c-0.3922119-0.0933838-0.8964233-0.2054138-1.4006958-0.2054138
				c-0.3922119,0-0.69104,0-1.0085449,0.0933838c-0.3175049,0.0933533-0.5042725,0.2054138-0.8030396,0.2987976
				c-0.2054443,0.2054443-0.3922119,0.2988281-0.5042725,0.5976562c-0.0933838,0.2054138-0.2054443,0.5042419-0.2054443,0.8030701
				c0,0.2987976,0.0933838,0.5976257,0.2054443,0.8964539c0.0933838,0.2054443,0.2988281,0.3921814,0.5042725,0.5976257
				s0.5042114,0.2988281,0.8030396,0.5042725c0.2988281,0.0933838,0.5976562,0.2988281,1.0085449,0.3922119
				c0.3922119,0.2054138,0.8030396,0.3921814,1.1952515,0.5042419c0.3922119,0.2054443,0.69104,0.3922119,1.0085449,0.5976562
				c0.2988281,0.2054138,0.5042114,0.5042419,0.690979,0.8964539c0.1867676,0.3921814,0.2988281,0.8030701,0.2988281,1.3073425
				c0,1.0085144-0.2988281,1.7929077-1.0084839,2.2971497c-0.69104,0.5042725-1.6062012,0.8031006-2.8014526,0.8031006
				c-0.3922119,0-0.8031006,0-1.1952515-0.0933838c-0.3922119-0.0933838-0.69104-0.0933838-0.8964844-0.2054443
				s-0.5042725-0.2054443-0.69104-0.2054443c-0.2054443-0.0933838-0.2988281-0.2054138-0.3921509-0.2054138l0.3921509-0.8964539
				c0.0933838,0.0933533,0.2988281,0.0933533,0.3922119,0.2054138c0.2054443,0.0933838,0.3922119,0.2054443,0.5976562,0.2054443
				c0.2054443,0.0933838,0.5042725,0.0933838,0.8031006,0.2054443
				C88.6101685,68.7122498,89.0023804,68.7122498,89.3012085,68.7122498z"/>
			<path fill="#4D524D" d="M97.7055054,61.0176392c0.5042725,0,1.0085449,0.0933838,1.4006958,0.2054138
				c0.3922119,0.0933838,0.69104,0.3922119,0.8964844,0.5976562s0.3922119,0.5976257,0.5042725,1.0085144
				c0.0933838,0.3922119,0.2054443,0.8030701,0.2054443,1.195282v5.2106628c-0.0933838,0-0.2988281,0.0933838-0.5042725,0.0933838
				s-0.3922119,0.0933838-0.69104,0.0933838s-0.5976562,0.0933838-0.8964233,0.0933838c-0.2988281,0-0.69104,0-1.0085449,0
				c-0.3922119,0-0.8031006,0-1.1953125-0.0933838c-0.3921509-0.0933838-0.690979-0.2054138-1.0084839-0.5042419
				c-0.2988281-0.2054443-0.5042725-0.5042725-0.5976562-0.8030701c-0.2054443-0.2988281-0.2054443-0.69104-0.2054443-1.1953125
				c0-0.3921814,0.0933838-0.8030701,0.2988281-1.195282c0.2054443-0.2987976,0.3922119-0.5976257,0.69104-0.8030701
				c0.2987671-0.2054138,0.690979-0.3921814,1.1018677-0.5042419c0.3922119-0.0933838,0.8964844-0.0933838,1.4007568-0.0933838
				c0.0933838,0,0.2987671,0,0.5042114,0s0.2988281,0,0.5042725,0.0933838c0.2054443,0,0.2988281,0.0933838,0.3922119,0.0933838
				s0.2054443,0.0933533,0.2054443,0.0933533v-0.5042419c0-0.2988281,0-0.5976562-0.0933838-0.8030701
				c0-0.2988281-0.0933838-0.5042725-0.2988281-0.69104c-0.0933838-0.2054138-0.2988281-0.3921814-0.5976562-0.5042419
				c-0.2987671-0.0933838-0.5975952-0.2054443-1.0084839-0.2054443c-0.5976562,0-1.1019287,0-1.4007568,0.0933838
				c-0.2987671,0.0933838-0.5042114,0.2054443-0.690979,0.2054443L95.5203857,61.29776
				c0.2053833-0.0933533,0.5042114-0.2054138,0.8030396-0.2054138
				C96.7156982,61.0176392,97.1078491,61.0176392,97.7055054,61.0176392z M97.8175659,68.7122498
				c0.3922119,0,0.8031006,0,1.1018677,0c0.2988281,0,0.5976562-0.0933838,0.8031006-0.0933838v-2.8948364
				c-0.0933838-0.0933533-0.2988281-0.0933533-0.5976562-0.2054138s-0.5975952-0.0933838-1.1018677-0.0933838
				c-0.2988281,0-0.5042725,0-0.8031006,0.0933838c-0.2988281,0-0.5042725,0.0933838-0.8030396,0.2054138
				c-0.2054443,0.0933838-0.3922119,0.2988281-0.5976562,0.5042725s-0.2054443,0.5042725-0.2054443,0.8030701
				c0,0.2988281,0.0933838,0.5976562,0.2054443,0.8030701c0.0933838,0.2054443,0.2054443,0.3922119,0.3922119,0.5042725
				c0.2053833,0.0933838,0.3921509,0.2054443,0.690979,0.2988281
				C97.2012329,68.7122498,97.4066772,68.7122498,97.8175659,68.7122498z"/>
			<path fill="#4D524D" d="M106.3152466,57.0022583c0.3922119,0,0.8031006,0,1.1019287,0.0933838
				c0.2987671,0.0933533,0.5042114,0.0933533,0.5975952,0.2054138l-0.2054443,0.8964539
				c-0.0933228-0.0933533-0.2987671-0.0933533-0.5042114-0.2054138c-0.2054443-0.0933838-0.5042725-0.0933838-0.8964844-0.0933838
				c-0.69104,0-1.307312,0.2054443-1.6061401,0.5976257c-0.2988281,0.3922119-0.5042725,1.0085449-0.5042725,1.7929382V61.18573
				h3.3057251v0.8964539h-3.3057251v7.3957825h-1.0084839v-9.2073975c0-1.1018982,0.2053833-1.9049683,0.690979-2.4092102
				C104.5223389,57.4131165,105.3067627,57.0022583,106.3152466,57.0022583z"/>
			<path fill="#4D524D" d="M108.8178711,65.3131714c0-0.69104,0.0933838-1.4007263,0.2988281-1.9049988
				c0.2054443-0.5042419,0.5042114-1.0085144,0.8030396-1.4006958c0.2988281-0.3922119,0.69104-0.5976562,1.1953125-0.8030701
				c0.3922119-0.2054443,0.8964233-0.2988281,1.307312-0.2988281c1.0085449,0,1.7929077,0.2988281,2.4092407,1.0085144
				c0.5976562,0.69104,0.8964844,1.6995239,0.8964844,3.1002502c0,0.0933838,0,0.2054443,0,0.2988281s0,0.2054138,0,0.2054138
				h-5.8083496c0,1.0085449,0.2988281,1.7929382,0.8031006,2.2971802c0.5042725,0.5042725,1.1953125,0.8030701,2.2037964,0.8030701
				c0.5976562,0,1.0085449-0.0933838,1.307312-0.2054138c0.2988281-0.0933838,0.5976562-0.2054443,0.69104-0.2988281
				l0.2054443,0.8964539c-0.0933838,0.0933838-0.3922119,0.2054443-0.8031006,0.2988281
				c-0.3921509,0.0933838-0.8964233,0.2054138-1.4006958,0.2054138c-0.69104,0-1.307312-0.0933533-1.9049683-0.2987976
				s-0.8964844-0.5042725-1.307373-0.8964539c-0.2987671-0.3922119-0.5975952-0.8030701-0.690979-1.4007263
				C108.9112549,66.5084534,108.8178711,65.9107971,108.8178711,65.3131714z M114.7195435,64.6034546
				c0-0.8964539-0.2054443-1.4940796-0.5976562-1.9983521c-0.3921509-0.5042419-0.8964233-0.6910095-1.6061401-0.6910095
				c-0.3922119,0-0.69104,0.0933838-1.0084839,0.2054138c-0.3175049,0.1120605-0.5042725,0.2988281-0.8031006,0.5976562
				c-0.2054443,0.2988281-0.3922119,0.5042725-0.5042725,0.8964539c-0.0933838,0.3922119-0.2054443,0.69104-0.2054443,1.0085144
				L114.7195435,64.6034546L114.7195435,64.6034546z"/>
			<path fill="#4D524D" d="M119.1271362,61.1110229h3.3057251v0.8964539h-3.3057251v4.4075623
				c0,0.5042725,0,0.8964844,0.0933838,1.1019287c0.0933838,0.2987976,0.2054443,0.5042419,0.2988281,0.6910095
				c0.0933838,0.2054443,0.2988281,0.2988281,0.5042725,0.2988281c0.2054443,0.0933838,0.3921509,0.0933838,0.690979,0.0933838
				c0.3922119,0,0.8031006-0.0933838,1.1019287-0.2054443s0.5042725-0.2054443,0.5976562-0.2988281l0.2988281,0.8964539
				c-0.2054443,0.0933838-0.3922119,0.2054443-0.8031006,0.2988281c-0.3922119,0.0933838-0.8031006,0.2054443-1.1953125,0.2054443
				c-0.5042114,0-0.8964233-0.0933838-1.307312-0.2054443c-0.2988281-0.0933838-0.5976562-0.2988281-0.8031006-0.5976562
				c-0.2053833-0.2987976-0.3921509-0.5976257-0.3921509-1.0085144c0-0.4108582-0.0933838-0.8964539-0.0933838-1.4006958v-7.6012268
				l1.0084839-0.2054443V61.1110229L119.1271362,61.1110229z"/>
			<path fill="#4D524D" d="M127.0271606,69.6087036c-0.2987671-0.69104-0.690979-1.3073425-1.0084839-1.9983521
				c-0.3175049-0.69104-0.5976562-1.4007263-0.8964844-2.0917664c-0.2988281-0.6910095-0.5042725-1.4006958-0.8030396-2.2037659
				c-0.2054443-0.69104-0.3922119-1.4007263-0.5976562-2.0917664h1.1018677
				c0.0933838,0.5042725,0.2988281,1.1019287,0.3922119,1.6995544c0.2054443,0.5976257,0.3922119,1.195282,0.5976562,1.7929077
				s0.5042725,1.3073425,0.8031006,1.9049683c0.2987671,0.69104,0.5975952,1.3073425,0.8964233,1.9983521
				c0.2054443-0.6910095,0.3922119-1.307312,0.5976562-1.9049683c0.2054443-0.5976257,0.3922119-1.195282,0.5042725-1.7929077
				c0.0933838-0.5976562,0.2987671-1.195282,0.5042725-1.7929077c0.0933228-0.5976562,0.2987671-1.3073425,0.3921509-1.9983826
				h1.0085449c-0.2988281,1.4941101-0.69104,3.1002502-1.1953125,4.5009766
				c-0.3921509,1.4941101-0.8964233,2.8014526-1.4006958,3.9967346c-0.2054443,0.5042419-0.3922119,0.8964539-0.5976562,1.195282
				c-0.2054443,0.2987976-0.5042725,0.5976257-0.690979,0.8964539c-0.2988281,0.2054138-0.5976562,0.3921814-0.8964844,0.5042419
				c-0.2988281,0.0933838-0.8031006,0.2054443-1.1953125,0.2054443c-0.2987671,0-0.5042114,0-0.690979-0.0933838
				c-0.2054443-0.0933838-0.3922119-0.0933838-0.3922119-0.0933838l0.2054443-0.8964539
				c0,0,0.2054443,0.0933838,0.3922119,0.0933838c0.2053833,0,0.3921509,0.0933838,0.5975952,0.0933838
				c0.2988281,0,0.5976562,0,0.8031006-0.0933838s0.5042725-0.2054443,0.5976562-0.2988281
				c0.2053833-0.2054138,0.3921509-0.3921814,0.5042114-0.5976257
				C126.7283936,70.3183899,126.9151611,70.0195618,127.0271606,69.6087036z"/>
			<path fill="#4D524D" d="M140.7355347,69.7207642c-0.69104,0-1.4006958-0.0933838-1.9983521-0.3922119
				c-0.5976562-0.2987976-1.1019287-0.5976257-1.6061401-1.1018982c-0.5042725-0.5042419-0.8031006-1.1018982-1.1019287-1.7929077
				c-0.2987671-0.6910095-0.3921509-1.4941101-0.3921509-2.5026245c0-0.8964539,0.0933838-1.7929077,0.3921509-2.5026245
				c0.2988281-0.6910095,0.69104-1.307312,1.1019287-1.7929077c0.5042725-0.5042419,1.0084839-0.8964539,1.6061401-1.1018982
				c0.5976562-0.2987976,1.307312-0.3921814,1.9049683-0.3921814c0.3922119,0,0.8031006,0,1.1019287,0.0933838
				c0.2988281,0.0933533,0.5976562,0.0933533,0.8964233,0.2054138c0.2988281,0.0933838,0.5042725,0.2054443,0.69104,0.2054443
				c0.2054443,0.0933838,0.2988281,0.2054443,0.3922119,0.2054443l-0.3922119,0.8964539
				c-0.2988281-0.2054443-0.5976562-0.2988281-1.0085449-0.5042725c-0.3921509-0.2054443-0.8964233-0.2054443-1.4940796-0.2054443
				c-0.69104,0-1.307312,0.0933838-1.7929077,0.3922119c-0.5042725,0.2054138-1.0085449,0.5976257-1.307312,1.0085144
				c-0.2988281,0.3922119-0.5976562,0.8964539-0.8031006,1.4941101c-0.2054443,0.5976257-0.2988281,1.195282-0.2988281,1.9983521
				c0,0.6910095,0.0933838,1.4007263,0.2988281,1.9983521c0.2054443,0.5976562,0.3922119,1.1018982,0.8031006,1.4941101
				c0.3921509,0.3921814,0.8030396,0.6910095,1.307312,1.0085144c0.5042725,0.2054443,1.1019287,0.2987976,1.6995239,0.2987976
				c0.69104,0,1.307373-0.0933533,1.7929077-0.2054138c0.5042725-0.0933838,0.8031006-0.2988281,1.1019287-0.3922119
				l0.2988281,0.8964539c-0.0933838,0.0933838-0.2054443,0.0933838-0.3922119,0.2054443
				c-0.2054443,0.0933838-0.3922119,0.0933838-0.69104,0.2054443c-0.2988281,0.0933838-0.5976562,0.0933838-1.0084839,0.2054138
				C141.5386353,69.6087036,141.1277466,69.7207642,140.7355347,69.7207642z"/>
			<path fill="#4D524D" d="M152.8377075,65.3131714c0,0.6910095-0.0933228,1.195282-0.2987671,1.7929077
				c-0.2054443,0.5042725-0.3922119,1.0085144-0.8031006,1.4007263c-0.2988281,0.3921814-0.69104,0.6910095-1.1952515,0.8964539
				c-0.5042725,0.2054138-1.0085449,0.2987976-1.4941406,0.2987976c-0.5042725,0-1.1018677-0.0933838-1.4940796-0.2987976
				c-0.3922119-0.2054443-0.8964844-0.5042725-1.1953125-0.8964539c-0.2987671-0.3922119-0.5975952-0.8031006-0.8030396-1.4007263
				c-0.2054443-0.5042725-0.2988281-1.1018982-0.2988281-1.7929077c0-0.69104,0.0933838-1.195282,0.2988281-1.7929077
				c0.2054443-0.5976562,0.3922119-1.0085449,0.8030396-1.4007263c0.2988281-0.3922119,0.69104-0.69104,1.1953125-0.8964539
				c0.5042725-0.2054443,1.0085449-0.2988281,1.4940796-0.2988281c0.5042725,0,1.1019287,0.0933838,1.4941406,0.2988281
				c0.3921509,0.2054138,0.8964233,0.5042419,1.1952515,0.8964539c0.2988281,0.3921814,0.5976562,0.8030701,0.8031006,1.4007263
				C152.7443848,64.0058289,152.8377075,64.6034546,152.8377075,65.3131714z M151.7358398,65.3131714
				c0-1.0085144-0.2054443-1.9049988-0.69104-2.5026245c-0.5042725-0.5976562-1.1018677-0.8964539-1.9983521-0.8964539
				c-0.8030396,0-1.4940796,0.2987976-1.9983521,0.8964539c-0.5042725,0.5976257-0.69104,1.4007263-0.69104,2.5026245
				s0.2054443,1.9049683,0.69104,2.5026245c0.5042725,0.5976257,1.1019287,0.8964539,1.9983521,0.8964539
				c0.8031006,0,1.4940796-0.2988281,1.9983521-0.8964539C151.4370117,67.1060791,151.7358398,66.3216858,151.7358398,65.3131714z"
				/>
			<path fill="#4D524D" d="M155.0415039,61.4098511c0.2988281-0.0933838,0.69104-0.2054443,1.1953125-0.2988281
				s1.1952515-0.2054443,1.9049683-0.2054443c0.5976562,0,1.1953125,0.0933838,1.6061401,0.2988281
				c0.3922119,0.2054443,0.8031006,0.3921814,1.0085449,0.8030701c0.2054443,0.2988281,0.3922119,0.69104,0.5042725,1.195282
				c0.0933838,0.5042725,0.2054443,1.0085144,0.2054443,1.6061707v4.5943298h-1.0085449v-4.2955322
				c0-0.5976257,0-1.1018982-0.0933838-1.4941101c-0.0933838-0.3921814-0.2054443-0.6910095-0.3922119-1.0085144
				s-0.3922119-0.3921814-0.69104-0.5976257c-0.2987671-0.0933838-0.690979-0.2054443-1.1018677-0.2054443
				c-0.5042725,0-0.8964844,0-1.307312,0.0933838c-0.3922119,0.0933838-0.5976562,0.0933838-0.69104,0.0933838v7.3210754h-1.0458984
				v-7.9000244H155.0415039z"/>
			<path fill="#4D524D" d="M165.8363647,68.7122498c0.5976562,0,1.1019287-0.0933838,1.4941406-0.2988281
				c0.3921509-0.2054443,0.5975952-0.5042725,0.5975952-1.0085144c0-0.2054443,0-0.3922119-0.0933838-0.5976562
				c-0.0933228-0.2054138-0.2053833-0.2987976-0.2987671-0.3921814s-0.3922119-0.2988281-0.5976562-0.3922119
				c-0.2988281-0.0933838-0.5976562-0.2987976-1.0085449-0.3921814c-0.2987671-0.0933838-0.5975952-0.2988281-0.8964233-0.3922119
				s-0.5042725-0.2987976-0.69104-0.5042419c-0.2054443-0.2054443-0.3922119-0.3922119-0.5042725-0.5976562
				c-0.0933838-0.2054138-0.2054443-0.5042419-0.2054443-0.8964539c0-0.6910095,0.2988281-1.195282,0.8031006-1.6061401
				c0.5042725-0.3922119,1.1953125-0.5976562,2.0917358-0.5976562c0.5976562,0,1.0085449,0,1.4006958,0.0933838
				c0.3922119,0.0933838,0.5976562,0.2054443,0.8031006,0.2988281l-0.2054443,0.8964539
				c-0.0933838-0.0933838-0.2988281-0.0933838-0.5976562-0.2988281c-0.2987671-0.0933838-0.8030396-0.2054138-1.307312-0.2054138
				c-0.2054443,0-0.5042725,0-0.69104,0.0933838c-0.2054443,0-0.3921509,0.0933533-0.5975952,0.2054138
				s-0.2988281,0.2054443-0.3922119,0.3922119c-0.0933838,0.2054138-0.0933838,0.2987976-0.0933838,0.5976257
				c0,0.2054443,0,0.3922119,0.0933838,0.5976562c0.0933838,0.2054138,0.2054443,0.2987976,0.3922119,0.3921814
				c0.2053833,0.0933838,0.3921509,0.2054443,0.5975952,0.2988281s0.5042725,0.2054138,0.8031006,0.3921814
				c0.2988281,0.0933838,0.5976562,0.2988281,0.8964233,0.3922119c0.2988281,0.0933838,0.5976562,0.2987976,0.8031006,0.5042419
				s0.3922119,0.3922119,0.5042725,0.69104c0.0933838,0.2987976,0.2054443,0.5976257,0.2054443,1.0085144
				c0,0.6910095-0.2988281,1.3073425-0.8031006,1.6995239c-0.5976562,0.3922119-1.307312,0.5976562-2.2971802,0.5976562
				c-0.69104,0-1.307312-0.0933838-1.6995239-0.2054443s-0.5976562-0.2054138-0.8031006-0.2987976l0.2988281-0.8964844
				c0,0,0.0933838,0.0933838,0.2054443,0.0933838c0.0933838,0,0.2054443,0.0933838,0.3922119,0.2054443
				c0.2054443,0.0933838,0.3922119,0.0933838,0.5976562,0.2054443
				C165.2387695,68.7122498,165.5375977,68.7122498,165.8363647,68.7122498z"/>
			<path fill="#4D524D" d="M174.446106,69.6087036c-0.5975952,0-1.1952515-0.0933838-1.6995239-0.2988281
				c-0.5042114-0.2054138-0.8964233-0.5042419-1.1952515-0.8964539c-0.2988281-0.3921814-0.5976562-0.8030701-0.69104-1.4007263
				c-0.2054443-0.5042419-0.2988281-1.1018982-0.2988281-1.7929077s0.0933838-1.195282,0.2988281-1.7929077
				c0.2054443-0.5042725,0.3922119-1.0085144,0.8031006-1.4007263c0.2987671-0.3921814,0.690979-0.6910095,1.1952515-0.8964539
				c0.5042725-0.2054138,1.0085449-0.2987976,1.6061401-0.2987976c0.3922119,0,0.8964844,0,1.307373,0.0933838
				c0.3922119,0.0933533,0.69104,0.2054138,0.8964233,0.2987976l-0.2987671,0.8964539
				c-0.2054443-0.0933838-0.5042725-0.2054138-0.69104-0.2987976c-0.2988281-0.0933838-0.5976562-0.0933838-1.1019287-0.0933838
				c-0.8964233,0-1.6061401,0.2987976-2.0917358,0.8964539c-0.5042725,0.5976257-0.69104,1.4007263-0.69104,2.5026245
				c0,0.5042419,0.0933838,0.8964539,0.2054443,1.4006958c0.0933838,0.3922119,0.2988281,0.8031006,0.5042725,1.1018982
				c0.2054443,0.2988281,0.5042725,0.5042725,0.8964844,0.69104c0.3921509,0.2054443,0.8030396,0.2054443,1.4006958,0.2054443
				c0.3922119,0,0.8031006-0.0933838,1.1019287-0.2054443s0.5042114-0.2054443,0.690979-0.2988281l0.2054443,0.8964539
				c-0.2054443,0.0933838-0.5042725,0.2054443-0.8964233,0.2988281
				C175.3425903,69.5153198,174.9503784,69.6087036,174.446106,69.6087036z"/>
			<path fill="#4D524D" d="M179.6567993,58.6083984c0,0.2054443-0.0933838,0.3922119-0.2054443,0.5976562
				c-0.0933838,0.0933838-0.2988281,0.2054138-0.5042725,0.2054138s-0.3921509-0.0933838-0.5042114-0.2054138
				c-0.2054443-0.0933838-0.2054443-0.2988281-0.2054443-0.5976562c0-0.2054138,0.0933838-0.3921814,0.2054443-0.5976257
				c0.0933228-0.0933838,0.2987671-0.2054443,0.5042114-0.2054443s0.3922119,0.0933838,0.5042725,0.2054443
				C179.6567993,58.2161865,179.6567993,58.4029541,179.6567993,58.6083984z M179.451355,69.421936h-1.0084839v-8.3109131h1.0084839
				V69.421936z"/>
			<path fill="#4D524D" d="M189.2564087,65.3131714c0,0.6910095-0.0933838,1.195282-0.2988281,1.7929077
				c-0.2054443,0.5042725-0.3922119,1.0085144-0.8031006,1.4007263c-0.2988281,0.3921814-0.69104,0.6910095-1.1952515,0.8964539
				c-0.5042725,0.2054138-1.0085449,0.2987976-1.4941406,0.2987976c-0.5042114,0-1.1018677-0.0933838-1.4940796-0.2987976
				c-0.3922119-0.2054443-0.8964233-0.5042725-1.1952515-0.8964539c-0.2988281-0.3922119-0.5976562-0.8031006-0.8031006-1.4007263
				c-0.2054443-0.5042725-0.2988281-1.1018982-0.2988281-1.7929077c0-0.69104,0.0933838-1.195282,0.2988281-1.7929077
				c0.2054443-0.5042725,0.3922119-1.0085449,0.8031006-1.4007263c0.2987671-0.3922119,0.690979-0.69104,1.1952515-0.8964539
				c0.5042725-0.2054443,1.0085449-0.2988281,1.4940796-0.2988281c0.5042725,0,1.1019287,0.0933838,1.4941406,0.2988281
				c0.5042114,0.2054138,0.8964233,0.5042419,1.1952515,0.8964539c0.2988281,0.3921814,0.5976562,0.8030701,0.8031006,1.4007263
				C189.1443481,64.1178894,189.2564087,64.6034546,189.2564087,65.3131714z M188.15448,65.3131714
				c0-1.0085144-0.2054443-1.9049988-0.69104-2.5026245c-0.5042725-0.5976562-1.1018677-0.8964539-1.9983521-0.8964539
				c-0.8964233,0-1.4940796,0.2987976-1.9983521,0.8964539c-0.5042725,0.5976257-0.69104,1.4007263-0.69104,2.5026245
				s0.2054443,1.9049683,0.69104,2.5026245c0.5042725,0.5976257,1.1019287,0.8964539,1.9983521,0.8964539
				c0.8964844,0,1.4940796-0.2988281,1.9983521-0.8964539C187.9490356,67.2181396,188.15448,66.3216858,188.15448,65.3131714z"/>
			<path fill="#4D524D" d="M197.8474121,69.1231079c-0.2987671,0.0933838-0.690979,0.2054443-1.1952515,0.2988281
				s-1.1953125,0.2054443-1.9049683,0.2054443c-0.5976562,0-1.1019287-0.0933838-1.6061401-0.2988281
				c-0.3922119-0.2054443-0.8031006-0.3921814-1.0085449-0.8030701c-0.2054443-0.3922119-0.3922119-0.69104-0.5975952-1.195282
				c-0.0933838-0.5042725-0.2054443-1.0085144-0.2054443-1.6061707v-4.5943298h1.0084839v4.2955322
				c0,0.5976257,0,1.1018982,0.0933838,1.4940796c0.0933838,0.3922119,0.2054443,0.69104,0.3922119,1.0085449
				c0.2054443,0.2987976,0.3922119,0.3921814,0.69104,0.5042419c0.2987671,0.0933838,0.690979,0.2054443,1.1018677,0.2054443
				c0.5042725,0,0.8964844,0,1.307373-0.0933838c0.3921509-0.0933838,0.5975952-0.0933838,0.690979-0.0933838v-7.3023987h1.0085449
				v7.9747314H197.8474121z"/>
			<path fill="#4D524D" d="M202.3671265,68.7122498c0.5975952,0,1.1018677-0.0933838,1.4940796-0.2988281
				s0.5975952-0.5042725,0.5975952-1.0085144c0-0.2054443,0-0.3922119-0.0933838-0.5976562
				c-0.0933838-0.2054138-0.2053833-0.2987976-0.2987671-0.3921814s-0.3922119-0.2988281-0.5976562-0.3922119
				c-0.2988281-0.0933838-0.5975952-0.2987976-1.0085449-0.3921814c-0.2987671-0.0933838-0.5975952-0.2988281-0.8964233-0.3922119
				s-0.5042725-0.2987976-0.69104-0.5042419c-0.2054443-0.2054443-0.3922119-0.3922119-0.5042114-0.5976562
				c-0.0933838-0.2054138-0.2054443-0.5042419-0.2054443-0.8964539c0-0.6910095,0.2988281-1.195282,0.8031006-1.6061401
				c0.5042114-0.3922119,1.1952515-0.5976562,2.0916748-0.5976562c0.5976562,0,1.0085449,0,1.4007568,0.0933838
				s0.5975952,0.2054443,0.8031006,0.2988281l-0.2054443,0.8964539c-0.0933838-0.0933838-0.2988281-0.0933838-0.5976562-0.2988281
				c-0.2988281-0.0933838-0.8031006-0.2054138-1.307312-0.2054138c-0.2054443,0-0.5042725,0-0.69104,0.0933838
				c-0.2054443,0-0.3922119,0.0933533-0.5975952,0.2054138c-0.2054443,0.0933838-0.2988281,0.2054443-0.3922119,0.3922119
				c-0.0933838,0.2054138-0.0933838,0.2987976-0.0933838,0.5976257c0,0.2054443,0,0.3922119,0.0933838,0.5976562
				c0.0933838,0.2054138,0.2054443,0.2987976,0.3922119,0.3921814c0.2053833,0.0933838,0.3921509,0.2054443,0.5975952,0.2988281
				s0.5042725,0.2054138,0.8031006,0.3921814c0.2988281,0.0933838,0.5976562,0.2988281,0.8964844,0.3922119
				s0.5975952,0.2987976,0.8031006,0.5042419c0.2053833,0.2054443,0.3921509,0.3922119,0.5042114,0.69104
				c0.0933838,0.2987976,0.2054443,0.5976257,0.2054443,1.0085144c0,0.6910095-0.2988281,1.3073425-0.8031006,1.6995239
				c-0.5975952,0.3922119-1.307312,0.5976562-2.2971802,0.5976562c-0.690979,0-1.307312-0.0933838-1.6995239-0.2054443
				c-0.3922119-0.0933838-0.5976562-0.2054138-0.8031006-0.2987976l0.2988281-0.8964844
				c0,0,0.0933838,0.0933838,0.2054443,0.0933838c0.0933838,0,0.2988281,0.0933838,0.3922119,0.2054443
				c0.2053833,0.0933838,0.3921509,0.0933838,0.5975952,0.2054443
				C201.7507935,68.9176941,201.9561768,68.7122498,202.3671265,68.7122498z"/>
			<path fill="#4D524D" d="M207.4656982,61.4098511c0.2988281-0.0933838,0.690979-0.2054443,1.1952515-0.2988281
				s1.1953125-0.2054443,1.9049683-0.2054443c0.5976562,0,1.1953125,0.0933838,1.6062012,0.2988281
				c0.3921509,0.2054443,0.8030396,0.3921814,1.0084839,0.8030701c0.2988281,0.2988281,0.3922119,0.69104,0.5042725,1.195282
				c0.0933838,0.5042725,0.2054443,1.0085144,0.2054443,1.6061707v4.5943298h-1.0085449v-4.2955322
				c0-0.5976257,0-1.1018982-0.0933838-1.4941101c-0.0933838-0.3921814-0.2054443-0.6910095-0.3922119-1.0085144
				c-0.2053833-0.2987976-0.3921509-0.3921814-0.690979-0.5976257c-0.2988281-0.0933838-0.69104-0.2054443-1.1019287-0.2054443
				c-0.5042114,0-0.8964233,0-1.307312,0.0933838c-0.3922119,0.0933838-0.5976562,0.0933838-0.69104,0.0933838v7.3210754h-1.0084839
				v-7.9000244H207.4656982z"/>
			<path fill="#4D524D" d="M216.0567627,65.3131714c0-0.69104,0.0933838-1.4007263,0.2988281-1.9049988
				c0.2054443-0.5042419,0.5042114-1.0085144,0.8030396-1.4006958c0.2988281-0.3922119,0.69104-0.5976562,1.1953125-0.8030701
				c0.3922119-0.2054443,0.8964844-0.2988281,1.307312-0.2988281c1.0085449,0,1.7929077,0.2988281,2.4092407,1.0085144
				c0.5976562,0.69104,0.8964844,1.6995239,0.8964844,3.1002502c0,0.0933838,0,0.2054443,0,0.2988281s0,0.2054138,0,0.2054138
				h-5.8082886c0,1.0085449,0.2988281,1.7929382,0.8031006,2.2971802c0.5042114,0.5042725,1.1952515,0.8030701,2.2037964,0.8030701
				c0.5975952,0,1.0084839-0.0933838,1.307312-0.2054138c0.2988281-0.0933838,0.5976562-0.2054443,0.69104-0.2988281
				l0.2054443,0.8964539c-0.0933838,0.0933838-0.3922119,0.2054443-0.8031006,0.2988281
				c-0.3922119,0.0933838-0.8964844,0.2054138-1.4007568,0.2054138c-0.690979,0-1.307312-0.0933533-1.9049683-0.2987976
				c-0.5042114-0.2054443-0.8964233-0.5042725-1.307312-0.8964539c-0.2988281-0.3922119-0.5976562-0.8030701-0.690979-1.4007263
				C216.1688232,66.5084534,216.0567627,65.9107971,216.0567627,65.3131714z M221.9584351,64.6034546
				c0-0.8964539-0.2053833-1.4940796-0.5975952-1.9983521c-0.3922119-0.5042419-0.8964844-0.6910095-1.6061401-0.6910095
				c-0.3922119,0-0.69104,0.0933838-1.0085449,0.2054138c-0.2988281,0.0933838-0.5042114,0.2988281-0.8031006,0.5976562
				c-0.2987671,0.2988281-0.3921509,0.5042725-0.5042114,0.8964539c-0.0933838,0.3922119-0.2054443,0.69104-0.2054443,1.0085144
				L221.9584351,64.6034546L221.9584351,64.6034546z"/>
			<path fill="#4D524D" d="M227.0757446,68.7122498c0.5975952,0,1.1018677-0.0933838,1.4940796-0.2988281
				s0.5976562-0.5042725,0.5976562-1.0085144c0-0.2054443,0-0.3922119-0.0933838-0.5976562
				c-0.0933838-0.2054138-0.2054443-0.2987976-0.2988281-0.3921814s-0.3922119-0.2988281-0.5976562-0.3922119
				c-0.2987671-0.0933838-0.5975952-0.2987976-1.0084839-0.3921814c-0.2988281-0.0933838-0.5976562-0.2988281-0.8964844-0.3922119
				s-0.5042725-0.2987976-0.690979-0.5042419c-0.2054443-0.2054443-0.3922119-0.3922119-0.5042725-0.5976562
				c-0.0933838-0.2054138-0.2054443-0.5042419-0.2054443-0.8964539c0-0.6910095,0.2988281-1.195282,0.8031006-1.6061401
				c0.5042114-0.3922119,1.1952515-0.5976562,2.0917358-0.5976562c0.5975952,0,1.0084839,0,1.4006958,0.0933838
				s0.5976562,0.2054443,0.8031006,0.2988281l-0.2054443,0.8964539c-0.0933838-0.0933838-0.2988281-0.0933838-0.5976562-0.2988281
				c-0.2987671-0.0933838-0.8030396-0.2054138-1.307312-0.2054138c-0.2054443,0-0.5042725,0-0.690979,0.0933838
				c-0.2054443,0-0.3922119,0.0933533-0.5976562,0.2054138c-0.2054443,0.0933838-0.2988281,0.2054443-0.3922119,0.3922119
				c-0.0933838,0.2054138-0.0933838,0.2987976-0.0933838,0.5976257c0,0.2054443,0,0.3922119,0.0933838,0.5976562
				c0.0933838,0.2054138,0.2054443,0.2987976,0.3922119,0.3921814c0.2054443,0.0933838,0.3922119,0.2054443,0.5976562,0.2988281
				c0.2053833,0.0933838,0.5042114,0.2054138,0.8030396,0.3921814c0.2988281,0.0933838,0.5976562,0.2988281,0.8964844,0.3922119
				s0.5976562,0.2987976,0.8031006,0.5042419s0.3922119,0.3922119,0.5042114,0.69104
				c0.0933838,0.2987976,0.2054443,0.5976257,0.2054443,1.0085144c0,0.6910095-0.2988281,1.3073425-0.8031006,1.6995239
				c-0.5975952,0.3922119-1.307312,0.5976562-2.2971802,0.5976562c-0.690979,0-1.307312-0.0933838-1.6995239-0.2054443
				c-0.3921509-0.0933838-0.5975952-0.2054138-0.8031006-0.2987976l0.2988281-0.8964844
				c0,0,0.0933838,0.0933838,0.2054443,0.0933838c0.0933838,0,0.2054443,0.0933838,0.3922119,0.2054443
				c0.2054443,0.0933838,0.3922119,0.0933838,0.5975952,0.2054443
				C226.4780884,68.7122498,226.664856,68.7122498,227.0757446,68.7122498z"/>
			<path fill="#4D524D" d="M233.8739014,68.7122498c0.5975952,0,1.1018677-0.0933838,1.4940796-0.2988281
				s0.5976562-0.5042725,0.5976562-1.0085144c0-0.2054443,0-0.3922119-0.0933838-0.5976562
				c-0.0933838-0.2054138-0.2054443-0.2987976-0.2988281-0.3921814s-0.3922119-0.2988281-0.5976562-0.3922119
				c-0.2987671-0.0933838-0.5975952-0.2987976-1.0084839-0.3921814c-0.2988281-0.0933838-0.5976562-0.2988281-0.8964844-0.3922119
				s-0.5042725-0.2987976-0.69104-0.5042419c-0.2053833-0.2054443-0.3921509-0.3922119-0.5042114-0.5976562
				c-0.0933838-0.2054138-0.2054443-0.5042419-0.2054443-0.8964539c0-0.6910095,0.2988281-1.195282,0.8031006-1.6061401
				c0.5042114-0.3922119,1.1952515-0.5976562,2.0917358-0.5976562c0.5975952,0,1.0084839,0,1.4006958,0.0933838
				s0.5976562,0.2054443,0.8031006,0.2988281l-0.2054443,0.8964539c-0.0933838-0.0933838-0.2988281-0.0933838-0.5976562-0.2988281
				c-0.2987671-0.0933838-0.690979-0.2054138-1.307312-0.2054138c-0.2054443,0-0.5042725,0-0.69104,0.0933838
				c-0.2053833,0-0.3921509,0.0933533-0.5975952,0.2054138c-0.2054443,0.0933838-0.2988281,0.2054443-0.3922119,0.3922119
				c-0.0933838,0.2054138-0.0933838,0.2987976-0.0933838,0.5976257c0,0.2054443,0,0.3922119,0.0933838,0.5976562
				c0.0933838,0.2054138,0.2054443,0.2987976,0.3922119,0.3921814c0.2054443,0.0933838,0.3922119,0.2054443,0.5975952,0.2988281
				c0.2054443,0.0933838,0.5042725,0.2054138,0.8031006,0.3921814c0.2988281,0.0933838,0.5976562,0.2988281,0.8964844,0.3922119
				s0.5976562,0.2987976,0.8031006,0.5042419s0.3921509,0.3922119,0.5042114,0.69104s0.2054443,0.5976257,0.2054443,1.0085144
				c0,0.6910095-0.2988281,1.3073425-0.8031006,1.6995239c-0.5975952,0.3922119-1.307312,0.5976562-2.2971802,0.5976562
				c-0.690979,0-1.307312-0.0933838-1.6995239-0.2054443c-0.3922119-0.0933838-0.5975952-0.2054138-0.8031006-0.2987976
				l0.2988281-0.8964844c0,0,0.0933838,0.0933838,0.2054443,0.0933838c0.0933838,0,0.2054443,0.0933838,0.3922119,0.2054443
				c0.2054443,0.0933838,0.3921509,0.0933838,0.5975952,0.2054443
				C233.2762451,68.7122498,233.5750732,68.7122498,233.8739014,68.7122498z"/>
			<path fill="#4D524D" d="M240.2798462,57.6185608v0.3922119h-1.0085449v2.5959778h-0.3921509v-2.5959778h-1.0085449v-0.3922119
				H240.2798462z M242.2781982,59.7102966c0.0933838-0.2054443,0.2054443-0.3922119,0.2988281-0.5976562
				c0.0933838-0.2054138,0.2053833-0.3921814,0.2987671-0.5976257s0.2054443-0.3922119,0.2988281-0.5042725
				c0.0933838-0.2054443,0.2054443-0.2987976,0.2054443-0.3921814h0.2988281c0,0.0933838,0.0933838,0.2987976,0.0933838,0.5042419
				s0.0933838,0.5042725,0.0933838,0.6910095c0,0.2988281,0,0.5042725,0.0933838,0.8031006c0,0.2987976,0,0.5976257,0,0.8964539
				h-0.3922119c0-0.3922119,0-0.8964539-0.0933838-1.195282c0-0.3922119-0.0933838-0.69104-0.0933838-1.0085449
				c-0.0933838,0.0933838-0.2054443,0.2988281-0.2988281,0.5042725s-0.2054443,0.2988281-0.2988281,0.5042725
				c-0.0933838,0.2054138-0.2053833,0.2987976-0.2987671,0.5042419s-0.0933838,0.2988281-0.2054443,0.3922119h-0.2988281
				c0-0.0933838-0.0933838-0.2054443-0.2054443-0.3922119s-0.2054443-0.2987976-0.2988281-0.5042419
				s-0.2053833-0.2988281-0.2987671-0.5042725s-0.2054443-0.2987976-0.2988281-0.5042725
				c0,0.2988281-0.0933838,0.5976562-0.0933838,1.0085449c0,0.3921814-0.0933838,0.8030701-0.0933838,1.195282h-0.3922119
				c0-0.2988281,0-0.5976562,0-0.8964539c0-0.2988281,0-0.5976562,0.0933838-0.8031006c0-0.2987976,0-0.5042419,0.0933838-0.6910095
				c0-0.2054443,0.0933838-0.3922119,0.0933838-0.5042725h0.2988281c0.0933838,0.0933838,0.0933838,0.2054443,0.2054443,0.3922119
				c0.0933838,0.2054443,0.2054443,0.2987976,0.2987671,0.5042725c0.0933838,0.2054138,0.2054443,0.3921814,0.2988281,0.5976257
				S242.1848145,59.5048523,242.2781982,59.7102966z"/>
		</g>
	</g>
</g>
</svg>
